<svg xmlns="http://www.w3.org/2000/svg" width="41.854" height="54.063" viewBox="0 0 41.854 54.063">
  <g id="administrator" transform="translate(-8 -1)">
    <path id="Path_660" data-name="Path 660" d="M36.9,36l7.716,1.1a5.232,5.232,0,0,1,4.492,5.18v16.39H9V42.282a5.233,5.233,0,0,1,4.492-5.18L21.208,36" transform="translate(-0.128 -4.48)" fill="#64b5f6"/>
    <path id="Path_661" data-name="Path 661" d="M33.848,53.7l2.616-10.464L31.232,38,26,43.232,28.616,53.7Z" transform="translate(-2.304 -4.736)" fill="#2196f3"/>
    <path id="Path_662" data-name="Path 662" d="M29.872,42,29,54.208l2.616,5.232,2.616-5.232L33.36,42" transform="translate(-2.688 -5.249)" fill="#90c114"/>
    <path id="Path_663" data-name="Path 663" d="M31.785,42H29.912l-.6,8.358A16.521,16.521,0,0,0,31.785,42Z" transform="translate(-2.729 -5.249)" fill="#90c114"/>
    <path id="Path_664" data-name="Path 664" d="M30.848,37.616l5.232,5.232L38.7,35.872,33.464,35l-2.616,2.616L28.232,35,23,35.872l2.616,6.976Z" transform="translate(-1.92 -4.352)" fill="#2196f3"/>
    <path id="Path_665" data-name="Path 665" d="M33.488,39.744v1.744a1.744,1.744,0,1,1-3.488,0V39.744L31.744,38Z" transform="translate(-2.816 -4.736)" fill="#90c114"/>
    <path id="Path_666" data-name="Path 666" d="M30.848,37.616,28.232,35,23,35.872l2.616,6.976Z" transform="translate(-1.92 -4.352)" fill="#2196f3"/>
    <path id="Path_667" data-name="Path 667" d="M41.416,12.464,39.742,9.117l1.436-1.436-3.7-3.7L36.042,5.417,32.7,3.744V2H27.464V3.744L24.117,5.417,22.681,3.981l-3.7,3.7,1.436,1.436-1.673,3.347H17V17.7h1.744l1.673,3.347-1.436,1.436,3.7,3.7,1.436-1.436,3.347,1.673V28.16H32.7V26.416l3.347-1.673,1.436,1.436,3.7-3.7-1.436-1.436L41.416,17.7H43.16V12.464ZM30.08,22.928a7.848,7.848,0,1,1,7.848-7.848A7.847,7.847,0,0,1,30.08,22.928Z" transform="translate(-1.152 -0.128)" fill="#f9e109"/>
    <path id="Path_668" data-name="Path 668" d="M29,32v2.616l2.616,2.616,2.616-2.616V32" transform="translate(-2.688 -3.968)" fill="#fadfb2"/>
    <g id="Group_4556" data-name="Group 4556" transform="translate(14.976 40.239)">
      <path id="Path_669" data-name="Path 669" d="M16,46h1.743V59.95H16Z" transform="translate(-16 -45.999)" fill="#8892a0"/>
    </g>
    <g id="Group_4557" data-name="Group 4557" transform="translate(40.263 40.239)">
      <path id="Path_670" data-name="Path 670" d="M45,46h1.743V59.95H45Z" transform="translate(-44.999 -45.999)" fill="#8892a0"/>
    </g>
    <path id="Path_671" data-name="Path 671" d="M31.609,38.155,30,39.764v1.744a1.744,1.744,0,0,0,1.744,1.744,15.61,15.61,0,0,0-.135-5.1Z" transform="translate(-2.816 -4.756)" fill="#90c114"/>
    <g id="Group_4558" data-name="Group 4558" transform="translate(8 1)">
      <path id="Path_672" data-name="Path 672" d="M39.439,15.72a8.719,8.719,0,1,0-8.719,8.72A8.729,8.729,0,0,0,39.439,15.72Zm-15.695,0A6.975,6.975,0,1,1,30.72,22.7,6.983,6.983,0,0,1,23.744,15.72Z" transform="translate(-9.792 -1.768)"/>
      <path id="Path_673" data-name="Path 673" d="M49.854,37.8a6.132,6.132,0,0,0-5.241-6.042l-7.693-1.1h0l-4.5-.751v-3.08l2.3-1.151.991.991a.873.873,0,0,0,1.234,0l3.7-3.7a.872.872,0,0,0,0-1.234l-.991-.991,1.151-2.3h1.205a.871.871,0,0,0,.872-.872V12.335a.871.871,0,0,0-.872-.872H40.8l-1.151-2.3.991-.991a.872.872,0,0,0,0-1.234l-3.7-3.7a.9.9,0,0,0-1.234,0l-.991.993-2.3-1.151V1.872A.871.871,0,0,0,31.543,1H26.312a.871.871,0,0,0-.872.872V3.077l-2.3,1.151-.991-.991a.871.871,0,0,0-.616-.255h0a.87.87,0,0,0-.616.255l-3.7,3.7a.872.872,0,0,0,0,1.234l.991.991-1.15,2.3H15.848a.871.871,0,0,0-.872.872v5.232a.871.871,0,0,0,.872.872h1.205l1.151,2.3-.992.991a.872.872,0,0,0,0,1.234l3.7,3.7a.9.9,0,0,0,1.234,0l.991-.991,2.3,1.149v3.081l-4.5.751h0l-7.694,1.1A6.132,6.132,0,0,0,8,37.8v16.39a.871.871,0,0,0,.871.872l40.111,0a.871.871,0,0,0,.872-.873ZM32.022,43.441l-.45-6.3,1.62,1.62Zm-1.367,5.341L28.927,52.24,27.2,48.782l.688-9.635a2.588,2.588,0,0,0,2.081,0ZM24.66,38.762l1.62-1.62-.45,6.3Zm3.395-3.395.872-.872.871.871v1.385a.872.872,0,0,1-1.743,0Zm2.616-5.083-1.744,1.744-1.743-1.744V28.9h3.487Zm3.146,6.635L30.16,33.263l1.683-1.683,3.744.624ZM23.353,23.834A.873.873,0,0,0,22.347,24l-.819.819-2.466-2.466.819-.82a.869.869,0,0,0,.163-1.006l-1.673-3.347a.872.872,0,0,0-.78-.482h-.872V13.208h.872a.872.872,0,0,0,.78-.482l1.673-3.347a.871.871,0,0,0-.163-1.006l-.819-.82,2.466-2.466.819.819a.868.868,0,0,0,1.006.164L26.7,4.4a.876.876,0,0,0,.483-.78V2.744h3.487v.872a.873.873,0,0,0,.482.78L34.5,6.069A.866.866,0,0,0,35.507,5.9l.819-.819,2.466,2.466-.819.82a.872.872,0,0,0-.164,1.007l1.674,3.347a.873.873,0,0,0,.78.482h.872V16.7h-.872a.872.872,0,0,0-.78.482l-1.674,3.347a.872.872,0,0,0,.164,1.007l.819.82-2.466,2.466L35.507,24a.874.874,0,0,0-1.006-.164l-3.347,1.673a.872.872,0,0,0-.483.78v.872H27.184v-.872a.872.872,0,0,0-.483-.78Zm2.659,7.746.572.572,1.109,1.11L24.036,36.92,22.267,32.2ZM9.744,37.8a4.38,4.38,0,0,1,3.743-4.315l7.022-1,2.352,6.27,2.605,10.419h0a.868.868,0,0,0,.062.179l1.985,3.971h-10.8V40.239H14.976v13.08H9.744ZM42.006,53.318V40.239H40.263v13.08H30.337l1.986-3.971a.867.867,0,0,0,.062-.179h0l2.6-10.419,2.353-6.27,7.022,1A4.382,4.382,0,0,1,48.111,37.8V53.318Z" transform="translate(-8 -1)"/>
    </g>
  </g>
</svg>
