<svg xmlns="http://www.w3.org/2000/svg" width="58.978" height="54.063" viewBox="0 0 58.978 54.063">
  <g id="building-2" transform="translate(0 -20)">
    <path id="Path_632" data-name="Path 632" d="M152,52h21.625v49.148H152Z" transform="translate(-133.324 -28.068)" fill="#64b5f6"/>
    <path id="Path_633" data-name="Path 633" d="M216,356h5.9v11.8H216Z" transform="translate(-189.46 -294.715)" fill="#f9e109"/>
    <path id="Path_634" data-name="Path 634" d="M8,228H25.693v25.557H8Z" transform="translate(-7.017 -182.443)" fill="#2196f3"/>
    <path id="Path_635" data-name="Path 635" d="M24,132H35.8v11.8H24Z" transform="translate(-21.051 -98.238)" fill="#f9e109"/>
    <path id="Path_636" data-name="Path 636" d="M40,76h7.864v6.881H40Z" transform="translate(-35.085 -49.119)" fill="#2196f3"/>
    <path id="Path_637" data-name="Path 637" d="M64,20h1.966v6.881H64Z" transform="translate(-56.136)" fill="#5a6470"/>
    <path id="Path_638" data-name="Path 638" d="M328,228h17.693v25.557H328Z" transform="translate(-287.698 -182.443)" fill="#2196f3"/>
    <path id="Path_639" data-name="Path 639" d="M371.8,94.676H360V76l11.8,3.932Z" transform="translate(-315.766 -49.119)" fill="#f9e109"/>
    <g id="Group_4555" data-name="Group 4555" transform="translate(3.932 29.83)">
      <path id="Path_640" data-name="Path 640" d="M384,124h1.966v12.779H384Z" transform="translate(-340.749 -121.051)" fill="#5a6470"/>
      <path id="Path_641" data-name="Path 641" d="M416,124h1.966v12.779H416Z" transform="translate(-368.817 -121.051)" fill="#5a6470"/>
      <g id="Group_4539" data-name="Group 4539" transform="translate(0 18.676)">
        <path id="SVGCleanerId_0" d="M32,252H43.8v1.966H32Z" transform="translate(-32 -252)" fill="#5a6470"/>
      </g>
      <g id="Group_4540" data-name="Group 4540" transform="translate(0 22.608)">
        <path id="SVGCleanerId_1" d="M32,284H43.8v1.966H32Z" transform="translate(-32 -284)" fill="#5a6470"/>
      </g>
      <g id="Group_4541" data-name="Group 4541" transform="translate(0 26.54)">
        <path id="SVGCleanerId_2" d="M32,316H43.8v1.966H32Z" transform="translate(-32 -316)" fill="#5a6470"/>
      </g>
      <g id="Group_4542" data-name="Group 4542" transform="translate(0 30.472)">
        <path id="SVGCleanerId_3" d="M32,348H43.8v1.966H32Z" transform="translate(-32 -348)" fill="#5a6470"/>
      </g>
      <path id="Path_642" data-name="Path 642" d="M192,100h3.932v3.932H192Z" transform="translate(-172.341 -100)" fill="#f9e109"/>
      <path id="Path_643" data-name="Path 643" d="M256,100h3.932v3.932H256Z" transform="translate(-228.477 -100)" fill="#f9e109"/>
      <path id="Path_644" data-name="Path 644" d="M192,164h3.932v3.932H192Z" transform="translate(-172.341 -156.136)" fill="#f9e109"/>
      <path id="Path_645" data-name="Path 645" d="M256,164h3.932v3.932H256Z" transform="translate(-228.477 -156.136)" fill="#f9e109"/>
      <path id="Path_646" data-name="Path 646" d="M192,228h3.932v3.932H192Z" transform="translate(-172.341 -212.272)" fill="#f9e109"/>
      <path id="Path_647" data-name="Path 647" d="M256,228h3.932v3.932H256Z" transform="translate(-228.477 -212.272)" fill="#f9e109"/>
      <path id="Path_648" data-name="Path 648" d="M192,292h3.932v3.932H192Z" transform="translate(-172.341 -268.409)" fill="#f9e109"/>
      <path id="Path_649" data-name="Path 649" d="M256,292h3.932v3.932H256Z" transform="translate(-228.477 -268.409)" fill="#f9e109"/>
      <path id="Path_650" data-name="Path 650" d="M376,388h5.9v5.9H376Z" transform="translate(-333.732 -352.613)" fill="#f9e109"/>
      <g id="Group_4543" data-name="Group 4543" transform="translate(39.319 18.676)">
        <path id="SVGCleanerId_4" d="M352,252h1.966v1.966H352Z" transform="translate(-352 -252)" fill="#5a6470"/>
      </g>
      <g id="Group_4544" data-name="Group 4544" transform="translate(43.251 18.676)">
        <path id="SVGCleanerId_5" d="M384,252h3.932v1.966H384Z" transform="translate(-384 -252)" fill="#5a6470"/>
      </g>
      <g id="Group_4545" data-name="Group 4545" transform="translate(49.148 18.676)">
        <path id="SVGCleanerId_6" d="M432,252h1.966v1.966H432Z" transform="translate(-432 -252)" fill="#5a6470"/>
      </g>
      <g id="Group_4546" data-name="Group 4546" transform="translate(39.319 22.608)">
        <path id="SVGCleanerId_7" d="M352,284h1.966v1.966H352Z" transform="translate(-352 -284)" fill="#5a6470"/>
      </g>
      <g id="Group_4547" data-name="Group 4547" transform="translate(43.251 22.608)">
        <path id="SVGCleanerId_8" d="M384,284h3.932v1.966H384Z" transform="translate(-384 -284)" fill="#5a6470"/>
      </g>
      <g id="Group_4548" data-name="Group 4548" transform="translate(49.148 22.608)">
        <path id="SVGCleanerId_9" d="M432,284h1.966v1.966H432Z" transform="translate(-432 -284)" fill="#5a6470"/>
      </g>
      <g id="Group_4549" data-name="Group 4549" transform="translate(39.319 26.54)">
        <path id="SVGCleanerId_10" d="M352,316h1.966v1.966H352Z" transform="translate(-352 -316)" fill="#5a6470"/>
      </g>
      <g id="Group_4550" data-name="Group 4550" transform="translate(43.251 26.54)">
        <path id="SVGCleanerId_11" d="M384,316h3.932v1.966H384Z" transform="translate(-384 -316)" fill="#5a6470"/>
      </g>
      <g id="Group_4551" data-name="Group 4551" transform="translate(49.148 26.54)">
        <path id="SVGCleanerId_12" d="M432,316h1.966v1.966H432Z" transform="translate(-432 -316)" fill="#5a6470"/>
      </g>
      <g id="Group_4552" data-name="Group 4552" transform="translate(39.319 30.472)">
        <path id="SVGCleanerId_13" d="M352,348h1.966v1.966H352Z" transform="translate(-352 -348)" fill="#5a6470"/>
      </g>
      <g id="Group_4553" data-name="Group 4553" transform="translate(43.251 30.472)">
        <path id="SVGCleanerId_14" d="M384,348h3.932v1.966H384Z" transform="translate(-384 -348)" fill="#5a6470"/>
      </g>
      <g id="Group_4554" data-name="Group 4554" transform="translate(49.148 30.472)">
        <path id="SVGCleanerId_15" d="M432,348h1.966v1.966H432Z" transform="translate(-432 -348)" fill="#5a6470"/>
      </g>
    </g>
    <path id="Path_651" data-name="Path 651" d="M57.012,30.1,43.251,25.516V44.574H41.285V22.949H17.693V44.574H15.728v-11.8H13.762V25.9H9.83V20H7.864v5.9H3.932v6.881H1.966v11.8H0V72.1H17.693v1.966H41.285V72.1H58.978V44.574H57.012Zm-11.8-1.859,9.83,3.276V44.574H53.08v-11.8H51.114v11.8H49.148v-11.8H47.183v11.8H45.217ZM5.9,27.864h5.9v4.915H5.9ZM3.932,34.745h9.83v9.83H3.932ZM1.966,70.131V46.54H17.693V70.131ZM27.523,72.1v-9.83h3.932V72.1Zm5.9,0V60.3H25.557V72.1h-5.9V24.915H39.319V72.1Zm13.762-1.966V66.2h3.932v3.932Zm9.83,0H53.08v-5.9H45.217v5.9H41.285V46.54H57.012Z"/>
    <path id="SVGCleanerId_0_1_" d="M32,252H43.8v1.966H32Z" transform="translate(-28.068 -203.494)"/>
    <path id="SVGCleanerId_1_1_" d="M32,284H43.8v1.966H32Z" transform="translate(-28.068 -231.562)"/>
    <path id="SVGCleanerId_2_1_" d="M32,316H43.8v1.966H32Z" transform="translate(-28.068 -259.63)"/>
    <path id="SVGCleanerId_3_1_" d="M32,348H43.8v1.966H32Z" transform="translate(-28.068 -287.698)"/>
    <path id="Path_652" data-name="Path 652" d="M184,97.9h5.9V92H184Zm1.966-3.932h1.966v1.966h-1.966Z" transform="translate(-161.392 -63.153)" fill="#f9e109"/>
    <path id="Path_653" data-name="Path 653" d="M248,97.9h5.9V92H248Zm1.966-3.932h1.966v1.966h-1.966Z" transform="translate(-217.528 -63.153)" fill="#f9e109"/>
    <path id="Path_654" data-name="Path 654" d="M184,161.9h5.9V156H184Zm1.966-3.932h1.966v1.966h-1.966Z" transform="translate(-161.392 -119.29)" fill="#f9e109"/>
    <path id="Path_655" data-name="Path 655" d="M248,161.9h5.9V156H248Zm1.966-3.932h1.966v1.966h-1.966Z" transform="translate(-217.528 -119.29)" fill="#f9e109"/>
    <path id="Path_656" data-name="Path 656" d="M184,225.9h5.9V220H184Zm1.966-3.932h1.966v1.966h-1.966Z" transform="translate(-161.392 -175.426)" fill="#f9e109"/>
    <path id="Path_657" data-name="Path 657" d="M248,225.9h5.9V220H248Zm1.966-3.932h1.966v1.966h-1.966Z" transform="translate(-217.528 -175.426)" fill="#f9e109"/>
    <path id="Path_658" data-name="Path 658" d="M184,289.9h5.9V284H184Zm1.966-3.932h1.966v1.966h-1.966Z" transform="translate(-161.392 -231.562)" fill="#f9e109"/>
    <path id="Path_659" data-name="Path 659" d="M248,289.9h5.9V284H248Zm1.966-3.932h1.966v1.966h-1.966Z" transform="translate(-217.528 -231.562)" fill="#f9e109"/>
    <path id="SVGCleanerId_4_1_" d="M352,252h1.966v1.966H352Z" transform="translate(-308.749 -203.494)"/>
    <path id="SVGCleanerId_5_1_" d="M384,252h3.932v1.966H384Z" transform="translate(-336.817 -203.494)"/>
    <path id="SVGCleanerId_6_1_" d="M432,252h1.966v1.966H432Z" transform="translate(-378.92 -203.494)"/>
    <path id="SVGCleanerId_7_1_" d="M352,284h1.966v1.966H352Z" transform="translate(-308.749 -231.562)"/>
    <path id="SVGCleanerId_8_1_" d="M384,284h3.932v1.966H384Z" transform="translate(-336.817 -231.562)"/>
    <path id="SVGCleanerId_9_1_" d="M432,284h1.966v1.966H432Z" transform="translate(-378.92 -231.562)"/>
    <path id="SVGCleanerId_10_1_" d="M352,316h1.966v1.966H352Z" transform="translate(-308.749 -259.63)"/>
    <path id="SVGCleanerId_11_1_" d="M384,316h3.932v1.966H384Z" transform="translate(-336.817 -259.63)"/>
    <path id="SVGCleanerId_12_1_" d="M432,316h1.966v1.966H432Z" transform="translate(-378.92 -259.63)"/>
    <path id="SVGCleanerId_13_1_" d="M352,348h1.966v1.966H352Z" transform="translate(-308.749 -287.698)"/>
    <path id="SVGCleanerId_14_1_" d="M384,348h3.932v1.966H384Z" transform="translate(-336.817 -287.698)"/>
    <path id="SVGCleanerId_15_1_" d="M432,348h1.966v1.966H432Z" transform="translate(-378.92 -287.698)"/>
  </g>
</svg>
