<svg xmlns="http://www.w3.org/2000/svg" width="31.992" height="54.063" viewBox="0 0 31.992 54.063">
  <g id="placeholder" transform="translate(-104.509)">
    <g id="Group_4529" data-name="Group 4529" transform="translate(105.304 0.792)">
      <path id="Path_535" data-name="Path 535" d="M150.849,366.987c0-4.244-5.183-7.579-12.879-7.579-.536,0-1.064-.089-1.584-.057-6.95.434-12.351,3.687-12.351,7.635s5.4,7.2,12.351,7.636c.52.032,1.048-.056,1.584-.056C145.666,374.566,150.849,371.231,150.849,366.987Z" transform="translate(-122.769 -322.192)" fill="#a1d51c"/>
      <path id="Path_536" data-name="Path 536" d="M242.584,358.947q-.8,0-1.584.05c6.95.434,12.351,3.686,12.351,7.635s-5.4,7.2-12.351,7.635q.78.049,1.584.05c7.7,0,13.935-3.441,13.935-7.685S250.28,358.947,242.584,358.947Z" transform="translate(-227.382 -321.837)" fill="#90c114"/>
      <path id="Path_537" data-name="Path 537" d="M139.327,30.786,128.152,51.231a1.056,1.056,0,0,1-1.829,0l-.669-.42L114.092,30.786A15.183,15.183,0,0,1,125.653,8.1c.518-.052,1.046.027,1.584.027C138.922,8.123,145.169,20.666,139.327,30.786Z" transform="translate(-112.036 -8.017)" fill="#64b5f6"/>
      <path id="Path_538" data-name="Path 538" d="M242.584,7.5A15.837,15.837,0,0,0,241,7.579a15.183,15.183,0,0,1,11.561,22.689l-10.682,18.5-.21,1.642a1.056,1.056,0,0,0,1.829,0l7.114-11.281,5.117-8.863A15.179,15.179,0,0,0,242.584,7.5Z" transform="translate(-227.382 -7.5)" fill="#2196f3"/>
      <path id="Path_539" data-name="Path 539" d="M188,293.772a22.392,22.392,0,0,0-8.028,1.4l6.444,11.162.669.843a1.056,1.056,0,0,0,1.829,0l4.322-10.347c-.835-.325,1.054-2.259.1-2.478A24.025,24.025,0,0,0,188,293.772Z" transform="translate(-172.797 -263.544)" fill="#f9e109"/>
      <path id="Path_540" data-name="Path 540" d="M247.917,299.3,241,311.281l.669,1.159a1.056,1.056,0,0,0,1.829,0l7.114-12.321A19.319,19.319,0,0,0,247.917,299.3Z" transform="translate(-227.382 -268.488)" fill="#fcbc04"/>
      <circle id="Ellipse_54" data-name="Ellipse 54" cx="9.729" cy="9.729" r="9.729" transform="translate(1.44 14.667) rotate(-45)" fill="#f9f6f9"/>
    </g>
    <g id="Group_4530" data-name="Group 4530" transform="translate(104.509)">
      <path id="Path_541" data-name="Path 541" d="M220.266,117.787a.792.792,0,0,0,1.12,0l2.446-2.446,2.446,2.446a.792.792,0,1,0,1.12-1.12l-2.446-2.446,2.446-2.446a.792.792,0,0,0-1.12-1.12l-2.446,2.446-2.446-2.446a.792.792,0,0,0-1.12,1.12l2.446,2.446-2.446,2.446A.792.792,0,0,0,220.266,117.787Z" transform="translate(-207.836 -98.763)"/>
      <path id="Path_542" data-name="Path 542" d="M132.3,40.468a16.114,16.114,0,0,0-5.949-2.676l2.869-4.969v0l1.306-2.262a.792.792,0,0,0-1.372-.792l-.972,1.684a24.7,24.7,0,0,0-15.35,0l-4.784-8.287a14.387,14.387,0,1,1,24.919,0l-2.117,3.667a.792.792,0,1,0,1.372.792l2.117-3.667a15.808,15.808,0,0,0,0-15.971,15.971,15.971,0,0,0-27.662,0,15.808,15.808,0,0,0,0,15.971l7.988,13.837a19.452,19.452,0,0,0-2.913.953.792.792,0,1,0,.615,1.46,18.207,18.207,0,0,1,3.126-.979l3.415,5.915a1.848,1.848,0,0,0,3.2,0l3.415-5.914a15.132,15.132,0,0,1,5.814,2.5,5.148,5.148,0,0,1,2.313,3.861c0,1.751-1.3,3.435-3.672,4.74a21.913,21.913,0,0,1-18.941,0c-2.368-1.306-3.672-2.989-3.672-4.74a5.078,5.078,0,0,1,2.209-3.779.792.792,0,0,0-.98-1.244,6.464,6.464,0,0,0-2.812,5.023c0,2.354,1.595,4.53,4.491,6.127a23.473,23.473,0,0,0,20.471,0c2.9-1.6,4.491-3.773,4.491-6.127a6.523,6.523,0,0,0-2.935-5.119Zm-11.563,3.881a.264.264,0,0,1-.457,0l-6.64-11.5a23.274,23.274,0,0,1,13.736,0Z" transform="translate(-104.509)"/>
      <path id="Path_543" data-name="Path 543" d="M159.376,58.857a.792.792,0,0,0-1.559.279,10.521,10.521,0,1,0,0-3.73.792.792,0,0,0,1.559.279,8.937,8.937,0,1,1,0,3.172Z" transform="translate(-152.177 -41.814)"/>
    </g>
  </g>
</svg>
