<svg id="mobile" xmlns="http://www.w3.org/2000/svg" width="54.063" height="41.449" viewBox="0 0 54.063 41.449">
  <path id="Path_313" data-name="Path 313" d="M145.8,8h18.021a1.8,1.8,0,0,1,1.8,1.8V45.844a1.8,1.8,0,0,1-1.8,1.8H145.8a1.8,1.8,0,0,1-1.8-1.8V9.8A1.8,1.8,0,0,1,145.8,8Zm0,0" transform="translate(-127.781 -7.099)" fill="#d3d8df"/>
  <g id="Group_4427" data-name="Group 4427" transform="translate(40.549 13.832)">
    <path id="Path_314" data-name="Path 314" d="M396.215,219.966l1.368-1.173,1.544,1.8-1.368,1.173Zm0,0" transform="translate(-392.138 -207.982)" fill="#8dc79d"/>
    <path id="Path_315" data-name="Path 315" d="M375.637,195.962,377,194.789l1.546,1.8-1.368,1.173Zm0,0" transform="translate(-373.877 -186.682)" fill="#8dc79d"/>
    <path id="Path_316" data-name="Path 316" d="M361.005,131.188l-.773-.9a.9.9,0,0,1,0-1.171l5.406-6.307,1.367,1.171-4.9,5.721.271.315Zm0,0" transform="translate(-360.016 -122.809)" fill="#8dc79d"/>
  </g>
  <path id="Path_317" data-name="Path 317" d="M429.406,74.7a2.7,2.7,0,1,1-2.7-2.7A2.7,2.7,0,0,1,429.406,74.7Zm0,0" transform="translate(-376.244 -63.891)" fill="#00a963"/>
  <path id="Path_318" data-name="Path 318" d="M429.406,242.7a2.7,2.7,0,1,1-2.7-2.7A2.7,2.7,0,0,1,429.406,242.7Zm0,0" transform="translate(-376.244 -212.968)" fill="#00a963"/>
  <path id="Path_319" data-name="Path 319" d="M57.926,123.969l1.369-1.173,1.544,1.8-1.368,1.173Zm0,0" transform="translate(-51.401 -108.966)" fill="#8dc79d"/>
  <path id="Path_320" data-name="Path 320" d="M78.5,147.966l1.368-1.173,1.546,1.8-1.368,1.173Zm0,0" transform="translate(-69.662 -130.259)" fill="#8dc79d"/>
  <path id="Path_321" data-name="Path 321" d="M59.3,179.187l-1.367-1.171,4.9-5.722-.271-.315,1.367-1.171.773.9a.9.9,0,0,1,0,1.171Zm0,0" transform="translate(-51.405 -151.57)" fill="#8dc79d"/>
  <path id="Path_322" data-name="Path 322" d="M13.406,250.7a2.7,2.7,0,1,1-2.7-2.7A2.7,2.7,0,0,1,13.406,250.7Zm0,0" transform="translate(-7.099 -220.067)" fill="#00a963"/>
  <path id="Path_323" data-name="Path 323" d="M13.406,82.7A2.7,2.7,0,1,1,10.7,80,2.7,2.7,0,0,1,13.406,82.7Zm0,0" transform="translate(-7.099 -70.989)" fill="#00a963"/>
  <path id="Path_324" data-name="Path 324" d="M145.8,56h18.021a1.8,1.8,0,0,1,1.8,1.8v25.23a1.8,1.8,0,0,1-1.8,1.8H145.8a1.8,1.8,0,0,1-1.8-1.8V57.8A1.8,1.8,0,0,1,145.8,56Zm0,0" transform="translate(-127.781 -49.693)" fill="#64b5f6"/>
  <path id="Path_325" data-name="Path 325" d="M145.8,56h18.021a1.8,1.8,0,0,1,1.8,1.8V81.23a1.8,1.8,0,0,1-1.8,1.8H145.8a1.8,1.8,0,0,1-1.8-1.8V57.8A1.8,1.8,0,0,1,145.8,56Zm0,0" transform="translate(-127.781 -49.693)" fill="#2196f3"/>
  <path id="Path_326" data-name="Path 326" d="M216,24h3.6v1.8H216Zm0,0" transform="translate(-191.671 -21.297)" fill="#277baa"/>
  <path id="Path_327" data-name="Path 327" d="M264,24h1.8v1.8H264Zm0,0" transform="translate(-234.265 -21.297)" fill="#277baa"/>
  <path id="Path_328" data-name="Path 328" d="M176.9,104h9.011a.9.9,0,0,1,.9.9v7.208a.9.9,0,0,1-.9.9H176.9a.9.9,0,0,1-.9-.9V104.9A.9.9,0,0,1,176.9,104Zm0,0" transform="translate(-156.177 -92.286)" fill="#f1dd47"/>
  <path id="Path_329" data-name="Path 329" d="M204.615,165.516a.9.9,0,0,1-.637-.264l-3.34-3.34H194.7a2.7,2.7,0,0,1-2.7-2.7v-.9h1.8v.9a.9.9,0,0,0,.9.9h6.307a.9.9,0,0,1,.637.264l2.066,2.066V152h1.8v12.615a.9.9,0,0,1-.556.832A.883.883,0,0,1,204.615,165.516Zm0,0" transform="translate(-170.375 -134.88)" fill="#f7ba61"/>
  <path id="Path_330" data-name="Path 330" d="M200,136h1.8v1.8H200Zm0,0" transform="translate(-177.474 -120.682)" fill="#da922a"/>
  <path id="Path_331" data-name="Path 331" d="M232,136h1.8v1.8H232Zm0,0" transform="translate(-205.869 -120.682)" fill="#da922a"/>
  <path id="Path_332" data-name="Path 332" d="M138.7,41.449h18.021a2.7,2.7,0,0,0,2.7-2.7V2.7a2.7,2.7,0,0,0-2.7-2.7H138.7A2.7,2.7,0,0,0,136,2.7V38.745A2.7,2.7,0,0,0,138.7,41.449Zm18.021-1.8H138.7a.9.9,0,0,1-.9-.9V35.876a2.671,2.671,0,0,0,.9.166h18.021a2.671,2.671,0,0,0,.9-.166v2.869A.9.9,0,0,1,156.724,39.646ZM137.8,8.11a.9.9,0,0,1,.9-.9h18.021a.9.9,0,0,1,.9.9v25.23a.9.9,0,0,1-.9.9H138.7a.9.9,0,0,1-.9-.9Zm.9-6.307h18.021a.9.9,0,0,1,.9.9V5.572a2.671,2.671,0,0,0-.9-.166H138.7a2.671,2.671,0,0,0-.9.166V2.7A.9.9,0,0,1,138.7,1.8Zm0,0" transform="translate(-120.682)"/>
  <path id="Path_333" data-name="Path 333" d="M396.215,219.965l1.369-1.172,1.543,1.8-1.369,1.172Zm0,0" transform="translate(-351.588 -194.15)"/>
  <path id="Path_334" data-name="Path 334" d="M375.637,195.971,377,194.8l1.547,1.8-1.367,1.174Zm0,0" transform="translate(-333.328 -172.856)"/>
  <path id="Path_335" data-name="Path 335" d="M365.631,122.8l-5.406,6.307a.9.9,0,0,0,0,1.171l.773.9,1.367-1.171-.271-.315,4.9-5.722Zm0,0" transform="translate(-319.459 -108.969)"/>
  <path id="Path_336" data-name="Path 336" d="M419.6,64a3.6,3.6,0,1,0,3.6,3.6A3.6,3.6,0,0,0,419.6,64Zm0,5.406a1.8,1.8,0,1,1,1.8-1.8A1.8,1.8,0,0,1,419.6,69.406Zm0,0" transform="translate(-369.145 -56.792)"/>
  <path id="Path_337" data-name="Path 337" d="M419.6,232a3.6,3.6,0,1,0,3.6,3.6A3.6,3.6,0,0,0,419.6,232Zm0,5.406a1.8,1.8,0,1,1,1.8-1.8A1.8,1.8,0,0,1,419.6,237.406Zm0,0" transform="translate(-369.145 -205.869)"/>
  <path id="Path_338" data-name="Path 338" d="M57.926,123.969l1.369-1.173,1.544,1.8-1.368,1.173Zm0,0" transform="translate(-51.401 -108.966)"/>
  <path id="Path_339" data-name="Path 339" d="M78.5,147.966l1.368-1.173,1.546,1.8-1.368,1.173Zm0,0" transform="translate(-69.662 -130.259)"/>
  <path id="Path_340" data-name="Path 340" d="M64.7,171.694l-.773-.9-1.367,1.171.271.315L57.93,178l1.367,1.171,5.406-6.307A.9.9,0,0,0,64.7,171.694Zm0,0" transform="translate(-51.405 -151.556)"/>
  <path id="Path_341" data-name="Path 341" d="M3.6,240a3.6,3.6,0,1,0,3.6,3.6A3.6,3.6,0,0,0,3.6,240Zm0,5.406a1.8,1.8,0,1,1,1.8-1.8A1.8,1.8,0,0,1,3.6,245.406Zm0,0" transform="translate(0 -212.968)"/>
  <path id="Path_342" data-name="Path 342" d="M3.6,72a3.6,3.6,0,1,0,3.6,3.6A3.6,3.6,0,0,0,3.6,72Zm0,5.406a1.8,1.8,0,1,1,1.8-1.8A1.8,1.8,0,0,1,3.6,77.406Zm0,0" transform="translate(0 -63.891)"/>
  <path id="Path_343" data-name="Path 343" d="M216,24h3.6v1.8H216Zm0,0" transform="translate(-191.671 -21.297)"/>
  <path id="Path_344" data-name="Path 344" d="M264,24h1.8v1.8H264Zm0,0" transform="translate(-234.265 -21.297)"/>
  <path id="Path_345" data-name="Path 345" d="M169.8,106.813h9.011a1.8,1.8,0,0,0,1.8-1.8V97.8a1.8,1.8,0,0,0-1.8-1.8H169.8a1.8,1.8,0,0,0-1.8,1.8v7.208A1.8,1.8,0,0,0,169.8,106.813Zm0-9.011h9.011v7.208H169.8Zm0,0" transform="translate(-149.078 -85.187)"/>
  <path id="Path_346" data-name="Path 346" d="M201.011,160.109H194.7a.9.9,0,0,1-.9-.9v-.9H192v.9a2.7,2.7,0,0,0,2.7,2.7h5.934l3.34,3.34a.9.9,0,0,0,.637.264.883.883,0,0,0,.345-.069.9.9,0,0,0,.556-.832V152h-1.8v10.44l-2.066-2.066A.9.9,0,0,0,201.011,160.109Zm0,0" transform="translate(-170.375 -134.88)"/>
  <path id="Path_347" data-name="Path 347" d="M200,136h1.8v1.8H200Zm0,0" transform="translate(-177.474 -120.682)"/>
  <path id="Path_348" data-name="Path 348" d="M232,136h1.8v1.8H232Zm0,0" transform="translate(-205.869 -120.682)"/>
</svg>
