<svg xmlns="http://www.w3.org/2000/svg" width="54.063" height="54.063" viewBox="0 0 54.063 54.063">
  <g id="attached-file" transform="translate(0)">
    <g id="Group_4527" data-name="Group 4527" transform="translate(0.792 0.792)">
      <path id="Path_526" data-name="Path 526" d="M15.032,7.5H10.14A2.64,2.64,0,0,0,7.5,10.14v47.2a2.64,2.64,0,0,0,2.64,2.64h4.522l40.566-2.112a2.64,2.64,0,0,0,2.64-2.64V14.814a2.64,2.64,0,0,0-2.64-2.64H42.054l-.736-.211-.848.211H21.6a2.64,2.64,0,0,1-1.959-.87L16.991,8.37a2.64,2.64,0,0,0-1.959-.87Z" transform="translate(-7.5 -7.5)" fill="#64b5f6"/>
      <g id="Group_4526" data-name="Group 4526" transform="translate(46.672 4.674)">
        <path id="Path_527" data-name="Path 527" d="M452.668,51.767H449.5a2.64,2.64,0,0,1,2.64,2.64V94.82a2.64,2.64,0,0,1-2.64,2.64h2.112a2.64,2.64,0,0,0,2.64-2.64l1.056-35.938V54.407A2.64,2.64,0,0,0,452.668,51.767Z" transform="translate(-449.5 -51.767)" fill="#2196f3"/>
      </g>
      <path id="Path_528" data-name="Path 528" d="M93.639,135.367,57.15,137.479H52.968a2.64,2.64,0,0,1-2.64-2.64V96.789a2.64,2.64,0,0,1,2.64-2.64H93.639a2.64,2.64,0,0,1,2.64,2.64v35.938A2.64,2.64,0,0,1,93.639,135.367Z" transform="translate(-45.806 -85)" fill="#f9e109"/>
      <path id="Path_529" data-name="Path 529" d="M452.668,94.149H449.5a2.64,2.64,0,0,1,2.64,2.64v36.994a2.64,2.64,0,0,1-2.64,2.64h2.112a2.64,2.64,0,0,0,2.64-2.64l1.056-33.216V96.789A2.64,2.64,0,0,0,452.668,94.149Z" transform="translate(-402.828 -85)" fill="#fcbc04"/>
      <path id="Path_530" data-name="Path 530" d="M129.063,169.485H92.574a2.64,2.64,0,0,1-2.64-2.64V132.574a2.64,2.64,0,0,1,2.64-2.64h36.489a2.64,2.64,0,0,1,2.64,2.64v34.272A2.64,2.64,0,0,1,129.063,169.485Z" transform="translate(-81.23 -117.006)" fill="#64b5f6"/>
      <path id="Path_531" data-name="Path 531" d="M452.668,129.934H449.5a2.64,2.64,0,0,1,2.64,2.64v34.272a2.64,2.64,0,0,1-2.64,2.64h3.168a2.64,2.64,0,0,0,2.64-2.64V132.574A2.64,2.64,0,0,0,452.668,129.934Z" transform="translate(-402.828 -117.006)" fill="#2196f3"/>
      <path id="Path_532" data-name="Path 532" d="M364.284,433.713h9.582a.528.528,0,0,0,.528-.528v-2.579a.528.528,0,0,0-.528-.528h-9.582a.528.528,0,0,0-.528.528v2.579A.528.528,0,0,0,364.284,433.713Z" transform="translate(-326.138 -385.457)" fill="#f9f6f9"/>
    </g>
    <g id="Group_4528" data-name="Group 4528" transform="translate(0 0)">
      <path id="Path_533" data-name="Path 533" d="M367.158,427.8a1.321,1.321,0,0,0,1.32-1.32V423.9a1.321,1.321,0,0,0-1.32-1.32h-9.582a1.321,1.321,0,0,0-1.32,1.32v2.579a1.321,1.321,0,0,0,1.32,1.32Zm-9.318-3.635h9.054v2.051H357.84Z" transform="translate(-318.638 -377.957)"/>
      <path id="Path_534" data-name="Path 534" d="M50.632,54.063a3.436,3.436,0,0,0,3.432-3.432V8.106a3.436,3.436,0,0,0-3.432-3.432H43.058V4.648a4.648,4.648,0,0,0-9.3,0v.026h-8.97a.792.792,0,0,0,0,1.584H41.474V9.15H7.954a3.436,3.436,0,0,0-3.432,3.432v9.878a.792.792,0,0,0,1.584,0V12.581a1.85,1.85,0,0,1,1.848-1.848h33.52v2.195H12.136A3.436,3.436,0,0,0,8.7,16.36v24.1a.792.792,0,0,0,1.584,0V16.36a1.85,1.85,0,0,1,1.848-1.848H41.474v6.92a3.064,3.064,0,1,1-6.129,0V18.365a.792.792,0,1,0-1.584,0v3.066a4.648,4.648,0,1,0,9.3,0v-6.92h7.574a1.85,1.85,0,0,1,1.848,1.848V50.632a1.85,1.85,0,0,1-1.848,1.848h-38.5a1.85,1.85,0,0,1-1.848-1.848V43.913a.792.792,0,1,0-1.584,0v6.719a3.411,3.411,0,0,0,.542,1.848H7.954a1.85,1.85,0,0,1-1.848-1.848V25.91a.792.792,0,0,0-1.584,0V50.632a3.41,3.41,0,0,0,.542,1.848H3.432a1.85,1.85,0,0,1-1.848-1.848V3.432A1.85,1.85,0,0,1,3.432,1.584H8.324a1.851,1.851,0,0,1,1.371.609l2.651,2.934a3.437,3.437,0,0,0,2.546,1.131H21.34a.792.792,0,0,0,0-1.584H14.892a1.851,1.851,0,0,1-1.371-.609L10.87,1.131A3.437,3.437,0,0,0,8.324,0H3.432A3.436,3.436,0,0,0,0,3.432v47.2a3.436,3.436,0,0,0,3.432,3.432ZM35.346,4.674V4.648a3.064,3.064,0,1,1,6.129,0v.026Zm7.712,1.584h7.574a1.85,1.85,0,0,1,1.848,1.848V9.692a3.41,3.41,0,0,0-1.848-.542H43.058Zm7.574,6.67H43.058V10.733h7.574a1.85,1.85,0,0,1,1.848,1.848v.889A3.41,3.41,0,0,0,50.632,12.928Z" transform="translate(0 0)"/>
    </g>
  </g>
</svg>
