<svg id="XMLID_1031_" xmlns="http://www.w3.org/2000/svg" width="54.063" height="54.063" viewBox="0 0 54.063 54.063">
  <g id="XMLID_1564_" transform="translate(7.932 7.932)">
    <g id="XMLID_1185_">
      <circle id="XMLID_1207_" cx="19.1" cy="19.1" r="19.1" fill="#64b5f6"/>
      <g id="XMLID_1187_" transform="translate(16.52 16.52)">
        <circle id="XMLID_1205_" cx="2.58" cy="2.58" r="2.58" fill="#f9e109"/>
      </g>
    </g>
  </g>
  <g id="XMLID_971_" transform="translate(0)">
    <g id="XMLID_977_">
      <path id="XMLID_1030_" d="M48.295,10.341h1.67a1.055,1.055,0,1,0,0-2.11h-4.01A1.055,1.055,0,0,0,44.9,9.286V13.3a1.055,1.055,0,0,0,2.11,0V12.135A24.921,24.921,0,1,1,27.032,2.11a25.3,25.3,0,0,1,3.04.183A1.055,1.055,0,1,0,30.327.2a27.415,27.415,0,0,0-3.3-.2A27.032,27.032,0,0,0,7.917,46.146a27.031,27.031,0,0,0,40.377-35.8Z" transform="translate(0)"/>
      <path id="XMLID_1029_" d="M69.747,74.237a1.056,1.056,0,0,0-1.456.327A20.149,20.149,0,1,0,74.6,68.27a1.055,1.055,0,1,0,1.125,1.785,18.046,18.046,0,1,1-3.15,28.037,18.161,18.161,0,0,1-2.5-22.4A1.056,1.056,0,0,0,69.747,74.237Z" transform="translate(-58.301 -58.302)"/>
      <path id="XMLID_1028_" d="M377.224,248.44h1.3a1.055,1.055,0,0,0,0-2.11h-1.3a1.055,1.055,0,1,0,0,2.11Z" transform="translate(-336.475 -220.337)"/>
      <path id="XMLID_1004_" d="M103.835,247.061a1.055,1.055,0,0,0,1.055,1.055h1.3a1.055,1.055,0,0,0,0-2.11h-1.3A1.055,1.055,0,0,0,103.835,247.061Z" transform="translate(-92.878 -220.047)"/>
      <path id="XMLID_1001_" d="M248.44,106.192v-1.3a1.055,1.055,0,0,0-2.11,0v1.3a1.055,1.055,0,0,0,2.11,0Z" transform="translate(-220.337 -92.878)"/>
      <path id="XMLID_1415_" d="M246.006,377.224v1.3a1.055,1.055,0,1,0,2.11,0v-1.3a1.055,1.055,0,1,0-2.11,0Z" transform="translate(-220.047 -336.475)"/>
      <path id="XMLID_996_" d="M190.774,158.43a1.055,1.055,0,1,0-1.492,1.492l3.576,3.576a3.635,3.635,0,1,0,6.411,0l7.216-7.216a1.055,1.055,0,0,0-1.492-1.492l-7.216,7.216a3.628,3.628,0,0,0-3.426,0Zm6.814,6.782a1.525,1.525,0,1,1-1.525-1.525A1.527,1.527,0,0,1,197.588,165.211Z" transform="translate(-169.031 -138.18)"/>
      <path id="XMLID_980_" d="M119.979,119.979a1.055,1.055,0,1,0-.746.309A1.06,1.06,0,0,0,119.979,119.979Z" transform="translate(-105.707 -105.707)"/>
      <path id="XMLID_979_" d="M316.493,11.988a1.056,1.056,0,1,0-.746-.309A1.059,1.059,0,0,0,316.493,11.988Z" transform="translate(-282.152 -8.836)"/>
    </g>
  </g>
</svg>
