<svg xmlns="http://www.w3.org/2000/svg" width="54.064" height="54.063" viewBox="0 0 54.064 54.063">
  <g id="search" transform="translate(0 -0.006)">
    <g id="Group_4533" data-name="Group 4533" transform="translate(0.788 0.794)">
      <path id="Path_559" data-name="Path 559" d="M149.327,237.547l-1.905-1.905,11.787-11.787,1.905,1.905-5.726,6.782Z" transform="translate(-132.641 -201.002)" fill="#f9e109"/>
      <path id="Path_560" data-name="Path 560" d="M0,0H16.669V1.643H0Z" transform="translate(16.682 36.544) rotate(-45)" fill="#fcbc04"/>
      <path id="Path_561" data-name="Path 561" d="M11.418,322.17l-3.492-3.492a1.588,1.588,0,0,1,0-2.246l13.8-13.8a4.208,4.208,0,0,1,4.843-.8,4.659,4.659,0,0,1,1.106.9c1.643,1.643.587,4.2-1.056,5.843L13.875,321.325C13.255,321.945,12.039,322.79,11.418,322.17Z" transform="translate(-7.461 -270.358)" fill="#64b5f6"/>
      <path id="Path_562" data-name="Path 562" d="M46.879,306.34a4.2,4.2,0,0,0-1.107-.794,4.208,4.208,0,0,1-.794,4.843l-13.8,13.8a1.588,1.588,0,0,1-2.246,0l1.9,1.9a1.588,1.588,0,0,0,2.246,0l13.8-13.8A4.207,4.207,0,0,0,46.879,306.34Z" transform="translate(-26.665 -274.065)" fill="#2196f3"/>
      <path id="Path_563" data-name="Path 563" d="M223.424,35.22a16.073,16.073,0,0,1-22.952.106,16.3,16.3,0,0,1,9.945-27.757A16.288,16.288,0,0,1,223.424,35.22Z" transform="translate(-175.817 -7.492)" fill="#64b5f6"/>
      <path id="Path_564" data-name="Path 564" d="M348.192,12.239a16.272,16.272,0,0,0-13.113-4.7,16.3,16.3,0,0,1,0,32.455,16.3,16.3,0,0,0,13.113-27.756Z" transform="translate(-300.479 -7.464)" fill="#2196f3"/>
      <circle id="Ellipse_55" data-name="Ellipse 55" cx="11.511" cy="11.511" r="11.511" transform="translate(24.673 4.794)" fill="#f9e109"/>
    </g>
    <g id="Group_4534" data-name="Group 4534" transform="translate(0 0.006)">
      <path id="Path_565" data-name="Path 565" d="M343.335,214.091a.8.8,0,1,0,.8.8A.8.8,0,0,0,343.335,214.091Z" transform="translate(-306.359 -191.481)"/>
      <path id="Path_566" data-name="Path 566" d="M317.909,93.889a4.126,4.126,0,0,0,1.137-3.083,4.159,4.159,0,0,0-8.313.22.792.792,0,0,0,1.584,0,2.6,2.6,0,0,1,.025-.36,2.575,2.575,0,1,1,2.55,2.936.792.792,0,0,0-.792.792v3.521a.792.792,0,1,0,1.584,0v-2.8A4.12,4.12,0,0,0,317.909,93.889Z" transform="translate(-277.916 -77.693)"/>
      <path id="Path_567" data-name="Path 567" d="M49.065,5.005a17.1,17.1,0,0,0-26.09,21.9L18.783,31.1A4.994,4.994,0,0,0,14.5,32.5l-3.1,3.1a.792.792,0,0,0,1.12,1.12l3.1-3.1a3.415,3.415,0,1,1,4.829,4.829l-13.8,13.8a.8.8,0,0,1-1.125,0l-3.7-3.7a.8.8,0,0,1,0-1.125l8.26-8.26a.792.792,0,0,0-1.12-1.12L.7,46.3a2.38,2.38,0,0,0,0,3.366l3.7,3.7a2.383,2.383,0,0,0,3.366,0l13.8-13.8a4.994,4.994,0,0,0,1.4-4.287l4.195-4.195a17.132,17.132,0,0,0,7.946,3,.792.792,0,0,0,.172-1.575,15.343,15.343,0,0,1-9.276-4.451,15.511,15.511,0,1,1,12.561,4.462.792.792,0,0,0,.08,1.58.818.818,0,0,0,.082,0,17.1,17.1,0,0,0,10.335-29.1ZM25.9,30.117l-3.5,3.5a4.972,4.972,0,0,0-1.947-1.947l3.5-3.5q.443.52.934,1.013t1.013.933Z" transform="translate(0 -0.006)"/>
      <path id="Path_568" data-name="Path 568" d="M236.425,59.279a.792.792,0,0,0-1.566.236,12.3,12.3,0,1,0,0-3.688.792.792,0,1,0,1.566.236,10.718,10.718,0,1,1,0,3.216Z" transform="translate(-210.047 -40.583)"/>
    </g>
  </g>
</svg>
