<svg xmlns="http://www.w3.org/2000/svg" width="54.484" height="54.063" viewBox="0 0 54.484 54.063">
  <g id="plug" transform="translate(0 -1.976)">
    <circle id="Ellipse_56" data-name="Ellipse 56" cx="3.444" cy="3.444" r="3.444" transform="translate(5.287 44.223)" fill="#f9e109"/>
    <path id="Path_587" data-name="Path 587" d="M238.683,347.4v2.235a1.171,1.171,0,0,1-1.171,1.171h-2.341A1.171,1.171,0,0,1,234,349.639V347.4Z" transform="translate(-209.1 -308.67)" fill="#2196f3"/>
    <path id="Path_588" data-name="Path 588" d="M168.007,161.363H150.981a2.98,2.98,0,0,1-2.98-2.98h0a2.98,2.98,0,0,1,2.98-2.98h17.026a2.98,2.98,0,0,1,2.98,2.98h0A2.98,2.98,0,0,1,168.007,161.363Z" transform="translate(-132.252 -137.101)" fill="#2196f3"/>
    <path id="Path_589" data-name="Path 589" d="M193.027,211.4v5.959a8.513,8.513,0,0,1-8.513,8.513h0A8.513,8.513,0,0,1,176,217.363V211.4" transform="translate(-157.272 -187.142)" fill="#64b5f6"/>
    <g id="Group_4537" data-name="Group 4537" transform="translate(19.261 8.513)">
      <path id="Path_590" data-name="Path 590" d="M183.129,63.4h0A2.128,2.128,0,0,0,181,65.532v7.662h4.257V65.532A2.128,2.128,0,0,0,183.129,63.4Z" transform="translate(-181.001 -63.404)" fill="#2196f3"/>
      <path id="Path_591" data-name="Path 591" d="M293.129,63.4h0A2.128,2.128,0,0,0,291,65.532v7.662h4.257V65.532A2.128,2.128,0,0,0,293.129,63.4Z" transform="translate(-279.296 -63.404)" fill="#2196f3"/>
    </g>
    <path id="Path_592" data-name="Path 592" d="M8.731,135.1a4.489,4.489,0,0,0-2.015.474,25.271,25.271,0,0,1,.051-29.026,1.064,1.064,0,0,0-1.733-1.235,27.261,27.261,0,0,0,.052,31.642,4.509,4.509,0,0,0,6.833,5.842h0a4.509,4.509,0,0,0-3.188-7.7Zm1.683,6.192a2.38,2.38,0,1,1,0-3.366A2.383,2.383,0,0,1,10.414,141.295Z" transform="translate(0 -91.944)"/>
    <path id="Path_593" data-name="Path 593" d="M165.242,95.49a24.8,24.8,0,0,1-10.165,4.328,2.913,2.913,0,0,1-3.443-2.859v-7.8h.093a2.237,2.237,0,0,0,2.235-2.235v-1.8a9.593,9.593,0,0,0,6.172-8.951V71.138a4.043,4.043,0,0,0-.532-7.908V56.6a3.192,3.192,0,1,0-6.385,0v6.6H147.9V56.6a3.192,3.192,0,1,0-6.385,0V63.23a4.043,4.043,0,0,0-.532,7.908v5.038a9.593,9.593,0,0,0,6.172,8.951v1.8a2.237,2.237,0,0,0,2.235,2.235h.12v7.8a5.04,5.04,0,0,0,5.04,5.036,5.091,5.091,0,0,0,.912-.083,26.914,26.914,0,0,0,11.03-4.7,1.064,1.064,0,0,0-1.246-1.725Zm-9.9-38.893a1.064,1.064,0,0,1,2.128,0v6.6h-2.128Zm-11.706,0a1.064,1.064,0,1,1,2.128,0v6.6H143.64Zm-3.512,10.641a1.918,1.918,0,0,1,1.915-1.915H159.07a1.915,1.915,0,0,1,0,3.831H142.044A1.918,1.918,0,0,1,140.128,67.238Zm2.98,8.939v-4.9h14.9v4.9a7.449,7.449,0,1,1-14.9,0Zm6.172,10.748V85.668a9.6,9.6,0,0,0,2.554,0v1.256a.107.107,0,0,1-.106.106h-2.341A.107.107,0,0,1,149.28,86.924Z" transform="translate(-123.315 -45.956)"/>
    <path id="Path_594" data-name="Path 594" d="M420.238,421.667l-.024.025a1.064,1.064,0,0,0,1.534,1.475l.024-.025a1.064,1.064,0,0,0-1.534-1.475Z" transform="translate(-375.241 -374.749)"/>
    <path id="Path_595" data-name="Path 595" d="M146.954,27.168A27.3,27.3,0,0,0,104.013,6.95a1.064,1.064,0,0,0,1.229,1.738,25.4,25.4,0,0,1,32.3,2.711,24.967,24.967,0,0,1,2.535,32.558,1.064,1.064,0,1,0,1.718,1.256A27.244,27.244,0,0,0,146.954,27.168Z" transform="translate(-92.542)"/>
    <path id="Path_596" data-name="Path 596" d="M71.77,76.793a1.062,1.062,0,0,0,.756-.315l.017-.018a1.064,1.064,0,0,0-1.512-1.5l-.017.018a1.064,1.064,0,0,0,.756,1.813Z" transform="translate(-63.182 -64.938)"/>
    <path id="Path_597" data-name="Path 597" d="M234.838,234.876l2.2-3.889a1.064,1.064,0,0,0-.926-1.589h-.76l1.4-1.769a1.064,1.064,0,0,0-1.669-1.321l-2.766,3.494a1.064,1.064,0,0,0,.834,1.725h1.134l-1.3,2.3a1.064,1.064,0,1,0,1.852,1.049Z" transform="translate(-207.393 -200.099)"/>
  </g>
</svg>
