<svg xmlns="http://www.w3.org/2000/svg" width="54.063" height="54.054" viewBox="0 0 54.063 54.054">
  <g id="contract" transform="translate(0 -0.039)">
    <path id="Path_370" data-name="Path 370" d="M9.8,8.039H45.838a1.8,1.8,0,0,1,1.8,1.8V58.49a1.8,1.8,0,0,1-1.8,1.8H9.8A1.8,1.8,0,0,1,8,58.49V9.841A1.8,1.8,0,0,1,9.8,8.039Zm0,0" transform="translate(-7.099 -7.099)" fill="#64b5f6"/>
    <path id="Path_371" data-name="Path 371" d="M30.523,53.084A16.216,16.216,0,0,1,14.306,36.868V8.039H9.8A1.8,1.8,0,0,0,8,9.841V58.49a1.8,1.8,0,0,0,1.8,1.8H45.838a1.8,1.8,0,0,0,1.8-1.8V53.084Zm0,0" transform="translate(-7.099 -7.099)" fill="#2196f3"/>
    <path id="Path_372" data-name="Path 372" d="M80,56.039h23.423v3.6H80Zm0,0" transform="translate(-70.991 -49.694)" fill="#f9e109"/>
    <path id="Path_373" data-name="Path 373" d="M114.919,113.841H96.9a.9.9,0,0,1,0-1.8h18.018a.9.9,0,0,1,0,1.8Zm0,0" transform="translate(-85.189 -99.387)" fill="#39519d"/>
    <path id="Path_374" data-name="Path 374" d="M148.721,169.841H128.9a.9.9,0,0,1,0-1.8h19.82a.9.9,0,1,1,0,1.8Zm0,0" transform="translate(-113.586 -149.081)" fill="#39519d"/>
    <path id="Path_375" data-name="Path 375" d="M74.919,217.841H56.9a.9.9,0,0,1,0-1.8H74.919a.9.9,0,0,1,0,1.8Zm0,0" transform="translate(-49.694 -191.676)" fill="#39519d"/>
    <path id="Path_376" data-name="Path 376" d="M255.207,217.841H248.9a.9.9,0,0,1,0-1.8h6.306a.9.9,0,0,1,0,1.8Zm0,0" transform="translate(-220.072 -191.676)" fill="#39519d"/>
    <path id="Path_377" data-name="Path 377" d="M65.91,257.841H56.9a.9.9,0,1,1,0-1.8H65.91a.9.9,0,1,1,0,1.8Zm0,0" transform="translate(-49.694 -227.171)" fill="#39519d"/>
    <path id="Path_378" data-name="Path 378" d="M175.207,257.841H168.9a.9.9,0,0,1,0-1.8h6.306a.9.9,0,0,1,0,1.8Zm0,0" transform="translate(-149.081 -227.171)" fill="#39519d"/>
    <path id="Path_379" data-name="Path 379" d="M103.424,59.643H80v-3.6Zm0,0" transform="translate(-70.991 -49.694)" fill="#fcbc04"/>
    <path id="Path_380" data-name="Path 380" d="M53.514,326.8a6.757,6.757,0,1,1-6.757-6.757A6.757,6.757,0,0,1,53.514,326.8Zm0,0" transform="translate(-35.495 -283.964)" fill="#f9e109"/>
    <path id="Path_381" data-name="Path 381" d="M46.746,337.459a6.756,6.756,0,0,0,6.423-4.666,16.216,16.216,0,0,1-8.964-8.351,6.757,6.757,0,0,0,2.54,13.018Zm0,0" transform="translate(-35.485 -287.871)" fill="#fcbc04"/>
    <path id="Path_382" data-name="Path 382" d="M192.9,344.654a.773.773,0,0,1-.288-.045.9.9,0,0,1-.568-1.135l2.216-6.649a1.8,1.8,0,0,1,3.5.424l.307,3.6.324-.549a1.786,1.786,0,0,1,3.216.225l.577,1.423,2.622-3.333a.9.9,0,0,1,1.414,1.117l-2.631,3.342a1.8,1.8,0,0,1-3.081-.459l-.559-1.414-.333.549a1.8,1.8,0,0,1-3.342-.7l-.306-3.657-2.171,6.612A.9.9,0,0,1,192.9,344.654Zm0,0" transform="translate(-170.375 -297.768)" fill="#39519d"/>
    <path id="Path_383" data-name="Path 383" d="M70.76,361.795a1.8,1.8,0,0,1-1.27-.523l-1.91-1.91a.9.9,0,0,1,1.27-1.279l1.91,1.91,3.189-3.18a.9.9,0,0,1,1.27,1.27l-3.18,3.189A1.8,1.8,0,0,1,70.76,361.795Zm0,0" transform="translate(-59.732 -316.404)" fill="#39519d"/>
    <path id="Path_384" data-name="Path 384" d="M339.358,163.449l4.681,2.7L335.931,180.2l-4.681-2.7Zm0,0" transform="translate(-293.947 -145.008)" fill="#fcbc04"/>
    <path id="Path_385" data-name="Path 385" d="M335.434,223.082,331.2,230.4l4.685,2.7,1.369-2.387A24.313,24.313,0,0,1,335.434,223.082Zm0,0" transform="translate(-293.902 -197.925)" fill="#e59730"/>
    <path id="Path_386" data-name="Path 386" d="M320.764,290.9l-4.685-2.7-1.919,5.127,3.117,1.8Zm0,0" transform="translate(-278.782 -255.71)" fill="#a1d51c"/>
    <path id="Path_387" data-name="Path 387" d="M305.125,333.758l3.121,1.8-.9,1.561a1.8,1.8,0,0,1-3.121-1.8Zm0,0" transform="translate(-269.75 -296.138)" fill="#e59730"/>
    <path id="Path_388" data-name="Path 388" d="M405.882,121.914l4.681,2.7-2.7,4.681-4.681-2.7Zm0,0" transform="translate(-357.777 -108.15)" fill="#fcbc04"/>
    <path id="Path_389" data-name="Path 389" d="M437.472,104.3a1.8,1.8,0,0,1,.659,2.461l-.9,1.561-3.121-1.8.9-1.561A1.8,1.8,0,0,1,437.472,104.3Zm0,0" transform="translate(-385.223 -92.304)" fill="#c4f236"/>
    <path id="Path_390" data-name="Path 390" d="M392.32,170.17l.9-1.56,4.681,2.7-.9,1.56Zm0,0" transform="translate(-348.14 -149.587)" fill="#e59730"/>
    <path id="Path_391" data-name="Path 391" d="M387.113,162.456a.9.9,0,0,1-.775-1.351l3.6-6.243a.9.9,0,0,0-.333-1.234l-7.8-4.5a.9.9,0,1,1,.9-1.559l7.8,4.5a2.7,2.7,0,0,1,.991,3.694l-3.6,6.243A.9.9,0,0,1,387.113,162.456Zm0,0" transform="translate(-338.41 -130.804)" fill="#39519d"/>
    <path id="Path_392" data-name="Path 392" d="M436.62,104.907a3.672,3.672,0,0,1,.126-.9,1.8,1.8,0,0,0-1.685.9l-.9,1.559,3.117,1.8.45-.775A3.549,3.549,0,0,1,436.62,104.907Zm0,0" transform="translate(-385.268 -92.256)" fill="#a1d51c"/>
    <g id="Group_4444" data-name="Group 4444" transform="translate(0 0.039)">
      <path id="Path_393" data-name="Path 393" d="M224.41,98.022a2.7,2.7,0,0,0-4.955-.649l-.45.784a.9.9,0,0,0-1.225.325l-2.288,3.9-.784-.45a.9.9,0,1,0-.9,1.559l.784.45-7.658,13.27-1.892,5.054-.9,1.684a2.7,2.7,0,0,0,.144,2.919l-2.027,2.486-.567-1.423a1.8,1.8,0,0,0-3.217-.253l-.324.549-.306-3.6a1.8,1.8,0,0,0-3.5-.423l-2.216,6.649a.9.9,0,0,0,.567,1.135.78.78,0,0,0,.279.072.9.9,0,0,0,.856-.612l2.207-6.649.315,3.657a1.8,1.8,0,0,0,3.342.775l.333-.55.559,1.415a1.8,1.8,0,0,0,3.081.459l2.1-2.657a2.775,2.775,0,0,0,.712.09,2.7,2.7,0,0,0,2.351-1.334l.9-1.5,3.432-4.171,7.739-13.433.784.45a.9.9,0,0,1,.333,1.234l-3.6,6.243a.894.894,0,1,0,1.522.937l3.6-6.243a2.7,2.7,0,0,0-.991-3.694l-.784-.45,2.252-3.9a.9.9,0,0,0-.324-1.225l.45-.784A2.7,2.7,0,0,0,224.41,98.022Zm-3.4.252a.9.9,0,0,1,.55-.423.946.946,0,0,1,.684.09.9.9,0,0,1,.424.549.946.946,0,0,1-.09.684l-.45.784-1.568-.9Zm-12.279,25.154-.45-.261-1.333-.775,1.279-3.423,2.838,1.639Zm-2.7,2.6a.9.9,0,0,1-.27-1.18l.45-.783,1.567.9-.45.775a.9.9,0,0,1-1.3.288Zm6.063-6.9-3.117-1.8,7.207-12.487,3.117,1.8Zm8.108-14.045-3.117-1.8,1.8-3.117,3.117,1.8Zm0,0" transform="translate(-170.446 -85.211)"/>
      <path id="Path_394" data-name="Path 394" d="M73.948,356.813l-3.189,3.18-1.91-1.91a.9.9,0,1,0-1.27,1.279l1.91,1.91a1.816,1.816,0,0,0,2.55,0l3.18-3.189a.9.9,0,0,0-1.27-1.27Zm0,0" transform="translate(-59.732 -316.443)"/>
      <path id="Path_395" data-name="Path 395" d="M32,319.7a7.658,7.658,0,0,0,15.315,0,.9.9,0,1,0-1.8,0,5.857,5.857,0,1,1-2.342-4.684.9.9,0,0,0,1.081-1.442A7.658,7.658,0,0,0,32,319.7Zm0,0" transform="translate(-28.396 -276.906)"/>
      <path id="Path_396" data-name="Path 396" d="M96.324,49.841a.9.9,0,0,0,0-1.8H72.9a.9.9,0,0,0-.9.9v3.6a.9.9,0,0,0,.9.9H96.324a.9.9,0,0,0,0-1.8H73.8v-1.8Zm0,0" transform="translate(-63.892 -42.634)"/>
      <path id="Path_397" data-name="Path 397" d="M96.9,112.039a.9.9,0,0,0,0,1.8h18.018a.9.9,0,0,0,0-1.8Zm0,0" transform="translate(-85.189 -99.426)"/>
      <path id="Path_398" data-name="Path 398" d="M148.721,168.039H128.9a.9.9,0,0,0,0,1.8h19.82a.9.9,0,1,0,0-1.8Zm0,0" transform="translate(-113.586 -149.12)"/>
      <path id="Path_399" data-name="Path 399" d="M75.82,216.94a.9.9,0,0,0-.9-.9H56.9a.9.9,0,0,0,0,1.8H74.919A.9.9,0,0,0,75.82,216.94Zm0,0" transform="translate(-49.694 -191.715)"/>
      <path id="Path_400" data-name="Path 400" d="M255.207,216.039H248.9a.9.9,0,0,0,0,1.8h6.306a.9.9,0,0,0,0-1.8Zm0,0" transform="translate(-220.072 -191.715)"/>
      <path id="Path_401" data-name="Path 401" d="M65.91,257.841a.9.9,0,1,0,0-1.8H56.9a.9.9,0,1,0,0,1.8Zm0,0" transform="translate(-49.694 -227.21)"/>
      <path id="Path_402" data-name="Path 402" d="M168.9,257.841h6.306a.9.9,0,0,0,0-1.8H168.9a.9.9,0,0,0,0,1.8Zm0,0" transform="translate(-149.081 -227.21)"/>
      <path id="Path_403" data-name="Path 403" d="M40.541,41.481a.9.9,0,0,0-.9.9v9.009a.9.9,0,0,1-.9.9H2.7a.9.9,0,0,1-.9-.9V2.742a.9.9,0,0,1,.9-.9H38.739a.9.9,0,0,1,.9.9V19.661a.9.9,0,0,0,1.8,0V2.742a2.7,2.7,0,0,0-2.7-2.7H2.7A2.7,2.7,0,0,0,0,2.742V51.391a2.7,2.7,0,0,0,2.7,2.7H38.739a2.7,2.7,0,0,0,2.7-2.7V42.382A.9.9,0,0,0,40.541,41.481Zm0,0" transform="translate(0 -0.039)"/>
    </g>
  </g>
</svg>
