<svg xmlns="http://www.w3.org/2000/svg" width="54.054" height="54.054" viewBox="0 0 54.054 54.054">
  <g id="renovation" transform="translate(-1 -1)">
    <g id="Group_4442" data-name="Group 4442" transform="translate(1.872 1.872)">
      <g id="Group_4429" data-name="Group 4429" transform="translate(1.744 15.693)">
        <path id="Path_353" data-name="Path 353" d="M30.661,20H4V38.126a12.286,12.286,0,0,1,3.487-3.731V23.487h8.718v8.84a12.225,12.225,0,0,1,9.956,8.6h4.5a12.243,12.243,0,0,1,4.725-6.53V26.53A12.243,12.243,0,0,1,30.661,20Z" transform="translate(-4 -20)" fill="#bae1ff"/>
      </g>
      <g id="Group_4430" data-name="Group 4430" transform="translate(27.899)">
        <path id="Path_354" data-name="Path 354" d="M46.206,2A12.207,12.207,0,1,1,34.863,9.7,12.208,12.208,0,0,1,46.206,2Z" transform="translate(-34 -2)" fill="#d3d8df"/>
      </g>
      <g id="Group_4431" data-name="Group 4431" transform="translate(27.899 27.899)">
        <path id="Path_355" data-name="Path 355" d="M46.206,34a12.211,12.211,0,1,1-6.975,2.188A12.208,12.208,0,0,1,46.206,34Z" transform="translate(-34 -34)" fill="#d3d8df"/>
      </g>
      <g id="Group_4432" data-name="Group 4432" transform="translate(32.258 5.231)">
        <path id="Path_356" data-name="Path 356" d="M52.435,18.976a1.739,1.739,0,1,1-2.459,2.459l-5.031-5.022A4.346,4.346,0,0,1,39,12.359l.872-.872,1.744,1.744a2.612,2.612,0,0,0,2.616-2.616L42.487,8.872,43.359,8a4.346,4.346,0,0,1,4.054,5.946Z" transform="translate(-39 -8)" fill="#f1dd47"/>
      </g>
      <g id="Group_4433" data-name="Group 4433" transform="translate(37.489 34.002)">
        <path id="Path_357" data-name="Path 357" d="M53.718,41A22.557,22.557,0,0,1,52.1,49.4l-.122.314-3.487-3.487L45,42.744l.314-.122A22.557,22.557,0,0,1,53.718,41Z" transform="translate(-45 -41)" fill="#f1dd47"/>
      </g>
      <g id="Group_4434" data-name="Group 4434" transform="translate(33.13 41.848)">
        <path id="Path_358" data-name="Path 358" d="M44.717,50.514a1.726,1.726,0,0,1,0,2.459l-1.744,1.744a1.739,1.739,0,1,1-2.459-2.459l1.744-1.744a1.726,1.726,0,0,1,2.459,0Z" transform="translate(-40 -50)" fill="#d3a06c"/>
      </g>
      <g id="Group_4435" data-name="Group 4435" transform="translate(20.924 20.924)">
        <path id="Path_359" data-name="Path 359" d="M26,26h8.718v6.975H26Z" transform="translate(-26 -26)" fill="#64b5f6"/>
      </g>
      <g id="Group_4436" data-name="Group 4436" transform="translate(0 27.899)">
        <path id="Path_360" data-name="Path 360" d="M25.906,42.718a12.208,12.208,0,1,1-22.162-2.8A12.2,12.2,0,0,1,14.206,34a12.729,12.729,0,0,1,1.744.122,12.225,12.225,0,0,1,9.956,8.6Z" transform="translate(-2 -34)" fill="#d3d8df"/>
      </g>
      <g id="Group_4437" data-name="Group 4437" transform="translate(8.718 33.13)">
        <path id="Path_361" data-name="Path 361" d="M20.718,40a1.749,1.749,0,0,1,1.744,1.744,1.756,1.756,0,0,1-1.744,1.744H13.744A1.749,1.749,0,0,1,12,41.744,1.756,1.756,0,0,1,13.744,40Z" transform="translate(-12 -40)" fill="#f1dd47"/>
      </g>
      <g id="Group_4438" data-name="Group 4438" transform="translate(0 12.206)">
        <path id="Path_362" data-name="Path 362" d="M29.9,16H2v3.487H30.4A12.134,12.134,0,0,1,29.9,16Z" transform="translate(-2 -16)" fill="#2196f3"/>
      </g>
      <g id="Group_4439" data-name="Group 4439">
        <path id="Path_363" data-name="Path 363" d="M25.531,5.845l-4.516-3.33a2.678,2.678,0,0,0-3.156,0L11.372,7.3,2,14.206H29.9A12.093,12.093,0,0,1,30.762,9.7Z" transform="translate(-2 -2)" fill="#2196f3"/>
      </g>
      <g id="Group_4440" data-name="Group 4440" transform="translate(10.462 43.592)">
        <path id="Path_364" data-name="Path 364" d="M17.487,53.744v1.744a1.744,1.744,0,0,1-3.487,0V53.744A1.749,1.749,0,0,1,15.744,52a1.756,1.756,0,0,1,1.744,1.744Z" transform="translate(-14 -52)" fill="#d3a06c"/>
      </g>
      <g id="Group_4441" data-name="Group 4441" transform="translate(5.231 19.181)">
        <path id="Path_365" data-name="Path 365" d="M16.718,24v8.84a12.728,12.728,0,0,0-1.744-.122A12.175,12.175,0,0,0,8,34.907V24Z" transform="translate(-8 -24)" fill="#64b5f6"/>
      </g>
    </g>
    <g id="Group_4443" data-name="Group 4443" transform="translate(1 1)">
      <path id="Path_366" data-name="Path 366" d="M41.977,28.9a12.99,12.99,0,0,0-6.1,1.52V25.636a13.078,13.078,0,1,0-5.582-17.4L21.4,1.686a3.619,3.619,0,0,0-4.181,0L1,13.637v4.8H2.744V35.48a13.072,13.072,0,1,0,24.412,6.5,13.129,13.129,0,0,0-.263-2.616h2.271A13.078,13.078,0,1,0,41.977,28.9Zm0-26.155A11.334,11.334,0,1,1,30.643,14.078,11.347,11.347,0,0,1,41.977,2.744ZM28.943,14.949a13.036,13.036,0,0,0,.22,1.744H20.181V14.949Zm-4.8-9.078L21.924,8.531v2.931h1.744v-1.2l2.226,1.112.78-1.56-2.5-1.251,1.376-1.651L29.6,9.893a12.986,12.986,0,0,0-.655,3.312H20.181V3a1.589,1.589,0,0,1,.185.092ZM18.252,3.091A1.523,1.523,0,0,1,18.437,3V13.206H4.524l6.35-4.679.839,1.956,4.809.963.343-1.71-3.909-.781-.639-1.49ZM2.744,14.949H18.437v1.744H2.744Zm1.744,3.487H18.437V29.662a12.9,12.9,0,0,0-1.744-.5V20.181H6.231V31.539a13.177,13.177,0,0,0-1.744,1.576ZM14.949,28.943c-.289-.019-.577-.044-.872-.044a12.99,12.99,0,0,0-6.1,1.52v-8.5h6.975Zm-.872,24.367A11.334,11.334,0,1,1,25.412,41.977,11.347,11.347,0,0,1,14.078,53.311ZM26.392,37.617a13.131,13.131,0,0,0-6.212-7.2V18.437h9.481a13.053,13.053,0,0,0,1.877,3.487H21.924v8.718H32.386v-7.7a13.177,13.177,0,0,0,1.744,1.576V31.54a13.113,13.113,0,0,0-4.468,6.078Zm4.25-13.949V28.9H23.668V23.668ZM41.977,53.311A11.334,11.334,0,1,1,53.311,41.977,11.347,11.347,0,0,1,41.977,53.311Z" transform="translate(-1 -1)"/>
      <path id="Path_367" data-name="Path 367" d="M20.078,39H13.1a2.612,2.612,0,0,0-2.455,1.744H7v5.04l6.975,1.744v2.1a2.612,2.612,0,0,0-1.744,2.455v1.744a2.616,2.616,0,0,0,5.231,0V52.078a2.612,2.612,0,0,0-1.744-2.455V46.165L8.744,44.421V42.487h1.9A2.612,2.612,0,0,0,13.1,44.231h6.975a2.616,2.616,0,0,0,0-5.231ZM15.718,53.821a.872.872,0,0,1-1.744,0V52.078a.872.872,0,0,1,1.744,0Zm4.359-11.334H13.1a.872.872,0,1,1,0-1.744h6.975a.872.872,0,0,1,0,1.744Z" transform="translate(-1.769 -5.87)"/>
      <path id="Path_368" data-name="Path 368" d="M43.231,17.462a5.06,5.06,0,0,0,1.349-.184l4.649,4.649a2.615,2.615,0,1,0,3.7-3.7L48.278,13.58a5.09,5.09,0,0,0,.184-1.349A5.236,5.236,0,0,0,43.231,7H42.87L41.126,8.744,43.2,10.817A1.746,1.746,0,0,1,41.818,12.2l-2.074-2.073L38,11.87v.361a5.236,5.236,0,0,0,5.231,5.231Zm-2.1-3.487h.361a3.491,3.491,0,0,0,3.487-3.487v-.361L43.613,8.764A3.466,3.466,0,0,1,46.471,13.5l-.209.531,5.432,5.432a.872.872,0,0,1,0,1.234.884.884,0,0,1-1.233,0L45.03,15.262l-.531.208a3.466,3.466,0,0,1-4.734-2.858Z" transform="translate(-5.742 -1.769)"/>
      <path id="Path_369" data-name="Path 369" d="M44.22,41.682l-1.541.615L46.486,46.1l-2.014,2.015a2.68,2.68,0,0,0-2.961.5l-1.744,1.744a2.615,2.615,0,1,0,3.7,3.7l1.744-1.744a2.584,2.584,0,0,0,.5-2.969l2.005-2.005,3.806,3.806.616-1.54a23.428,23.428,0,0,0,1.681-8.731V40h-.872a23.384,23.384,0,0,0-8.73,1.682Zm-.244,9.4-1.744,1.744a.884.884,0,0,1-1.233,0,.871.871,0,0,1,0-1.233l1.744-1.744a.872.872,0,1,1,1.233,1.233Zm6.895-3.058-5.07-5.07a21.614,21.614,0,0,1,6.26-1.189,21.644,21.644,0,0,1-1.19,6.259Z" transform="translate(-5.87 -5.998)"/>
    </g>
  </g>
</svg>
