<svg xmlns="http://www.w3.org/2000/svg" width="45.742" height="54.063" viewBox="0 0 45.742 54.063">
  <g id="notification" transform="translate(-39.402)">
    <g id="Group_4531" data-name="Group 4531" transform="translate(40.194 0.792)">
      <path id="Path_544" data-name="Path 544" d="M234.587,8.41a2.231,2.231,0,0,0-2.528,2.422v9.221h5.056l-1.056-9.221C236.059,9.436,235.983,8.41,234.587,8.41Z" transform="translate(-212.508 -8.304)" fill="#f9e109"/>
      <path id="Path_545" data-name="Path 545" d="M248.4,7.5a2.519,2.519,0,0,0-.9.165,2.528,2.528,0,0,1,1.63,2.363v9.221h1.8V10.028A2.528,2.528,0,0,0,248.4,7.5Z" transform="translate(-226.318 -7.5)" fill="#fcbc04"/>
      <path id="Path_546" data-name="Path 546" d="M138.512,120.277,108.4,111.5v-9.436a15.588,15.588,0,0,1,13.992-15.505c.524-.053,1.056.025,1.594.025,8.608,0,14.53,6.872,14.53,15.48Z" transform="translate(-101.903 -78.19)" fill="#64b5f6"/>
      <path id="Path_547" data-name="Path 547" d="M108.4,322.917v7.725l28,2.112,1.056-6.351-1.056-3.486Z" transform="translate(-101.903 -289.611)" fill="#f9e109"/>
      <path id="Path_548" data-name="Path 548" d="M242.584,85.95a15.761,15.761,0,0,0-1.584.08,15.588,15.588,0,0,1,14,15.506v19.273l3.168-2.112V101.536A15.586,15.586,0,0,0,242.584,85.95Z" transform="translate(-220.505 -77.666)" fill="#2196f3"/>
      <path id="Path_549" data-name="Path 549" d="M373.6,322.917v9.837l3.168-2.112v-7.725Z" transform="translate(-339.107 -289.611)" fill="#fcbc04"/>
      <path id="Path_550" data-name="Path 550" d="M212.181,401.8c0-3.161-1.507-5.724-4.668-5.724a5.687,5.687,0,1,0,0,11.343C210.674,407.419,212.181,404.962,212.181,401.8Z" transform="translate(-185.433 -355.045)" fill="#64b5f6"/>
      <path id="Path_551" data-name="Path 551" d="M243.926,396.076a5.731,5.731,0,0,0-1.426.179,5.726,5.726,0,0,1,0,11.091,5.725,5.725,0,1,0,1.426-11.27Z" transform="translate(-221.846 -355.045)" fill="#2196f3"/>
      <path id="Path_552" data-name="Path 552" d="M354.991,106.025a6.315,6.315,0,0,0-6.388-6.388,6.622,6.622,0,0,0-1.162,0,6.495,6.495,0,0,0,0,12.779,6.622,6.622,0,0,0,1.162,0A6.315,6.315,0,0,0,354.991,106.025Z" transform="translate(-310.938 -89.88)" fill="#a1d51c"/>
      <path id="Path_553" data-name="Path 553" d="M393.766,98.906a6.517,6.517,0,0,0-1.161.106,6.492,6.492,0,0,1,0,12.775,6.493,6.493,0,1,0,1.161-12.881Z" transform="translate(-356.1 -89.254)" fill="#90c114"/>
      <path id="Path_554" data-name="Path 554" d="M87.166,401.75H49.738a2.837,2.837,0,1,1,0-5.675H87.166a2.837,2.837,0,1,1,0,5.675Z" transform="translate(-46.901 -355.044)" fill="#64b5f6"/>
      <path id="Path_555" data-name="Path 555" d="M411.395,396.076h-3.168a2.837,2.837,0,0,1,0,5.675h3.168a2.837,2.837,0,1,0,0-5.675Z" transform="translate(-370.074 -355.045)" fill="#2196f3"/>
    </g>
    <g id="Group_4532" data-name="Group 4532" transform="translate(39.402 0)">
      <path id="Path_556" data-name="Path 556" d="M396.9,127.8a.792.792,0,0,0,.792-.792v-3.822a.792.792,0,0,0-1.584,0v3.822A.792.792,0,0,0,396.9,127.8Z" transform="translate(-358.44 -109.469)"/>
      <path id="Path_557" data-name="Path 557" d="M396.9,184.994a.792.792,0,1,0-.792-.792A.792.792,0,0,0,396.9,184.994Z" transform="translate(-358.439 -164.043)"/>
      <path id="Path_558" data-name="Path 558" d="M81.515,41.031H78.651V24.662c0-.16,0-.321-.008-.482A7.286,7.286,0,0,0,79.765,9.9a.792.792,0,0,0-.413,1.529,5.7,5.7,0,1,1-3.021.01.792.792,0,0,0-.424-1.526,7.249,7.249,0,0,0-3.332,2.013,16.358,16.358,0,0,0-6.981-3.306V3.32a3.32,3.32,0,0,0-6.64,0v5.3A16.406,16.406,0,0,0,45.9,24.661V26.43a.792.792,0,1,0,1.584,0V24.661a14.793,14.793,0,0,1,24.137-11.47,7.276,7.276,0,0,0,5.442,10.986c.005.162.009.323.009.484v8.644H47.479V29.882a.792.792,0,0,0-1.584,0V41.031H43.031a3.629,3.629,0,0,0,0,7.259H55.8a6.515,6.515,0,0,0,12.946,0H81.515a3.629,3.629,0,0,0,0-7.259ZM60.537,8.376V3.32a1.736,1.736,0,0,1,3.472,0V8.377a16.336,16.336,0,0,0-3.472,0ZM47.479,34.89H77.067v6.141H47.479Zm14.794,17.59a4.94,4.94,0,0,1-4.876-4.19H67.15A4.94,4.94,0,0,1,62.273,52.479Zm19.242-5.774H43.031a2.045,2.045,0,0,1,0-4.091H81.515a2.045,2.045,0,0,1,0,4.091Z" transform="translate(-39.402 0)"/>
    </g>
  </g>
</svg>
