<svg xmlns="http://www.w3.org/2000/svg" width="50.839" height="54.063" viewBox="0 0 50.839 54.063">
  <g id="contract" transform="translate(-15.265)">
    <g id="Group_4535" data-name="Group 4535" transform="translate(16.057 0.792)">
      <path id="Path_569" data-name="Path 569" d="M410.621,74.09l-1.056,4.681V96.819l.211,3.889c0,1.081.439.954,1.37,1.361a2.6,2.6,0,0,0,1.056.114c1.456,0,1.581-.019,1.581-1.475V74.09Z" transform="translate(-368.722 -67.059)" fill="#f9e109"/>
      <path id="Path_570" data-name="Path 570" d="M425.595,51.117a2.627,2.627,0,0,0-1.056.221,2.352,2.352,0,0,1,1.581,2.205V80.161a2.491,2.491,0,0,1-1.581,2.311,2.627,2.627,0,0,0,1.056.221c1.456,0,1.581-1.075,1.581-2.531l1.056-3.889V57.432l-1.056-3.889C427.176,52.086,427.051,51.117,425.595,51.117Z" transform="translate(-382.115 -46.511)" fill="#fcbc04"/>
      <path id="Path_571" data-name="Path 571" d="M412.728,56.52l1.056-3.889c0-1.456-.125-2.531-1.581-2.531a2.6,2.6,0,0,0-1.056.114,2.638,2.638,0,0,0-1.581,2.417v3.1Z" transform="translate(-368.723 -45.599)" fill="#a1d51c"/>
      <path id="Path_572" data-name="Path 572" d="M428.232,55.643V51.754a2.637,2.637,0,0,0-3.693-2.416,2.637,2.637,0,0,1,1.581,2.416v3.889Z" transform="translate(-382.115 -44.723)" fill="#90c114"/>
      <path id="Path_573" data-name="Path 573" d="M59.173,55.3,27.834,59.979a5.069,5.069,0,0,1-5.069-5.069V8.556A1.056,1.056,0,0,1,23.821,7.5h34.3a1.056,1.056,0,0,1,1.056,1.056Z" transform="translate(-22.765 -7.5)" fill="#64b5f6"/>
      <path id="Path_574" data-name="Path 574" d="M342.733,7.5h-3.168a1.056,1.056,0,0,1,1.056,1.056V59.979h3.168V8.556A1.056,1.056,0,0,0,342.733,7.5Z" transform="translate(-306.113 -7.5)" fill="#2196f3"/>
      <path id="Path_575" data-name="Path 575" d="M76.894,408.095a1.056,1.056,0,0,0-1.056,1.056v4.013a5.069,5.069,0,0,1-5.048,5.068l-.021.043h36.619a5.069,5.069,0,0,0,5.069-5.069v-4.055A1.056,1.056,0,0,0,111.4,408.1H76.894Z" transform="translate(-65.7 -365.795)" fill="#64b5f6"/>
      <path id="Path_576" data-name="Path 576" d="M404.75,408.095h-3.168a1.056,1.056,0,0,1,1.056,1.056v4.055a5.069,5.069,0,0,1-5.069,5.069h3.168a5.069,5.069,0,0,0,5.069-5.069v-4.055A1.056,1.056,0,0,0,404.75,408.095Z" transform="translate(-357.993 -365.795)" fill="#2196f3"/>
      <path id="Path_577" data-name="Path 577" d="M409.565,289.344v3.889a2.638,2.638,0,0,0,1.581,2.417,2.109,2.109,0,0,0,.951.114h.106c1.456,0,1.581-1.075,1.581-2.531l-1.056-3.889h-3.162Z" transform="translate(-368.722 -259.583)" fill="#a1d51c"/>
      <path id="Path_578" data-name="Path 578" d="M426.12,289.344v3.889a2.637,2.637,0,0,1-1.581,2.416,2.637,2.637,0,0,0,3.693-2.416v-3.889Z" transform="translate(-382.115 -259.583)" fill="#90c114"/>
    </g>
    <g id="Group_4536" data-name="Group 4536" transform="translate(15.265)">
      <path id="Path_579" data-name="Path 579" d="M79.266,66.22h24.327a.792.792,0,1,0,0-1.584H79.266a.792.792,0,1,0,0,1.584Z" transform="translate(-71.8 -57.811)"/>
      <path id="Path_580" data-name="Path 580" d="M79.266,136.946h24.327a.792.792,0,1,0,0-1.584H79.266a.792.792,0,1,0,0,1.584Z" transform="translate(-71.8 -121.069)"/>
      <path id="Path_581" data-name="Path 581" d="M79.266,207.671h24.327a.792.792,0,1,0,0-1.584H79.266a.792.792,0,1,0,0,1.584Z" transform="translate(-71.8 -184.326)"/>
      <path id="Path_582" data-name="Path 582" d="M79.266,278.4h24.327a.792.792,0,1,0,0-1.584H79.266a.792.792,0,1,0,0,1.584Z" transform="translate(-71.8 -247.585)"/>
      <path id="Path_583" data-name="Path 583" d="M79.266,340.288h4.072a.792.792,0,1,0,0-1.584H79.266a.792.792,0,1,0,0,1.584Z" transform="translate(-71.8 -302.939)"/>
      <path id="Path_584" data-name="Path 584" d="M172.913,323.8a.792.792,0,0,0-1.185.313l-.775,1.7-1.893-1.871a.792.792,0,0,0-.911-.145l-7.154,3.579a.792.792,0,1,0,.709,1.417l6.646-3.325,2.3,2.269a.792.792,0,0,0,1.277-.235l.844-1.851,3.776,2.735a.792.792,0,0,0,.929-1.283Z" transform="translate(-145.215 -289.479)"/>
      <path id="Path_585" data-name="Path 585" d="M410.214,48.143h-1.291v-3.1a3.429,3.429,0,0,0-6.858,0V71.664A3.434,3.434,0,0,0,404.7,75v2.147a.792.792,0,0,0,1.584,0V75a3.434,3.434,0,0,0,2.637-3.336v-6.3a.792.792,0,1,0-1.584,0v1.621h-3.69V49.727h3.69V61.911a.792.792,0,1,0,1.584,0V49.727h1.291a.264.264,0,0,1,.264.264v9.164a.792.792,0,0,0,1.584,0V49.991A1.85,1.85,0,0,0,410.214,48.143Zm-2.875,20.424v3.1a1.845,1.845,0,0,1-3.69,0v-3.1Zm-3.69-20.424v-3.1a1.845,1.845,0,0,1,3.69,0v3.1Z" transform="translate(-361.222 -37.223)"/>
      <path id="Path_586" data-name="Path 586" d="M62.814,42.3h-8.29V1.848A1.85,1.85,0,0,0,52.676,0H17.113a1.85,1.85,0,0,0-1.848,1.848V21a.792.792,0,0,0,1.584,0V1.848a.264.264,0,0,1,.264-.264H52.676a.264.264,0,0,1,.264.264V42.3H42.411a.792.792,0,0,0,0,1.584h20.4a.264.264,0,0,1,.264.264V48.2A4.282,4.282,0,0,1,58.8,52.479H25.08a5.848,5.848,0,0,0,1.906-4.319V44.148a.264.264,0,0,1,.264-.264H38.959a.792.792,0,0,0,0-1.584H27.251A1.85,1.85,0,0,0,25.4,44.148v4.013a4.277,4.277,0,0,1-8.554.042V24.45a.792.792,0,1,0-1.584,0V48.2a5.867,5.867,0,0,0,5.861,5.861H58.8A5.867,5.867,0,0,0,64.662,48.2V44.148A1.85,1.85,0,0,0,62.814,42.3Z" transform="translate(-15.265)"/>
    </g>
  </g>
</svg>
