<svg xmlns="http://www.w3.org/2000/svg" width="54.063" height="54.063" viewBox="0 0 54.063 54.063">
  <g id="settings" transform="translate(0 -0.002)">
    <path id="Path_273" data-name="Path 273" d="M61.951,39.235V32.72l-5.017-1.25a21.31,21.31,0,0,0-2.952-7.124l2.663-4.431-4.608-4.608-4.431,2.663a21.313,21.313,0,0,0-7.124-2.952L39.233,10H32.718l-1.25,5.017a21.31,21.31,0,0,0-7.124,2.952l-4.431-2.663-4.608,4.608,2.663,4.431a21.313,21.313,0,0,0-2.952,7.124L10,32.72v6.516l5.017,1.25a21.31,21.31,0,0,0,2.952,7.124L15.305,52.04l4.608,4.608,4.431-2.663a21.313,21.313,0,0,0,7.124,2.952l1.25,5.017h6.516l1.25-5.017a21.31,21.31,0,0,0,7.124-2.952l4.431,2.663,4.608-4.608-2.663-4.431a21.313,21.313,0,0,0,2.952-7.124Z" transform="translate(-8.944 -8.944)" fill="#2196f3"/>
    <circle id="Ellipse_41" data-name="Ellipse 41" cx="14.765" cy="14.765" r="14.765" transform="translate(12.08 12.082)" fill="#64b5f6"/>
    <circle id="Ellipse_42" data-name="Ellipse 42" cx="6.711" cy="6.711" r="6.711" transform="translate(20.134 20.136)" fill="#fff"/>
    <path id="Path_274" data-name="Path 274" d="M53.262,22.751l-4.388-1.093a22.275,22.275,0,0,0-2.6-6.267l2.329-3.875a1.056,1.056,0,0,0-.158-1.291L43.84,5.617a1.056,1.056,0,0,0-1.291-.158L38.674,7.788a22.274,22.274,0,0,0-6.267-2.6L31.314.8A1.056,1.056,0,0,0,30.289,0H23.774a1.056,1.056,0,0,0-1.025.8L21.656,5.191a22.279,22.279,0,0,0-6.267,2.6l-3.875-2.33a1.056,1.056,0,0,0-1.291.158L5.615,10.225a1.056,1.056,0,0,0-.158,1.291l2.329,3.875a22.274,22.274,0,0,0-2.6,6.267L.8,22.751A1.056,1.056,0,0,0,0,23.776v6.516a1.056,1.056,0,0,0,.8,1.025l4.388,1.093a22.272,22.272,0,0,0,2.6,6.267l-2.33,3.875a1.056,1.056,0,0,0,.158,1.291l4.608,4.608a1.056,1.056,0,0,0,1.291.158l3.875-2.33a22.28,22.28,0,0,0,6.267,2.6l1.093,4.388a1.056,1.056,0,0,0,1.025.8h6.516a1.056,1.056,0,0,0,1.025-.8l1.093-4.388a22.275,22.275,0,0,0,6.267-2.6l3.875,2.33a1.056,1.056,0,0,0,1.291-.158l4.608-4.608a1.056,1.056,0,0,0,.158-1.291l-2.329-3.875a22.275,22.275,0,0,0,2.6-6.267l4.388-1.093a1.056,1.056,0,0,0,.8-1.025V23.776A1.057,1.057,0,0,0,53.262,22.751Zm-1.311,6.715-4.216,1.05a1.056,1.056,0,0,0-.777.8,20.2,20.2,0,0,1-2.806,6.771,1.056,1.056,0,0,0-.019,1.118l2.238,3.723L42.93,46.373l-3.723-2.238a1.056,1.056,0,0,0-1.118.019,20.2,20.2,0,0,1-6.771,2.806,1.056,1.056,0,0,0-.8.777l-1.05,4.216H24.6l-1.05-4.216a1.056,1.056,0,0,0-.8-.777,20.2,20.2,0,0,1-6.771-2.806,1.056,1.056,0,0,0-1.118-.019l-3.723,2.238L7.691,42.932,9.93,39.209a1.056,1.056,0,0,0-.019-1.118A20.2,20.2,0,0,1,7.105,31.32a1.056,1.056,0,0,0-.777-.8l-4.216-1.05V24.6l4.216-1.05a1.056,1.056,0,0,0,.777-.8,20.2,20.2,0,0,1,2.806-6.771,1.056,1.056,0,0,0,.019-1.118L7.691,11.135l3.441-3.441,3.723,2.238a1.056,1.056,0,0,0,1.118-.019,20.2,20.2,0,0,1,6.771-2.806,1.056,1.056,0,0,0,.8-.777L24.6,2.114h4.865l1.05,4.216a1.056,1.056,0,0,0,.8.777,20.2,20.2,0,0,1,6.771,2.806,1.056,1.056,0,0,0,1.118.019L42.93,7.694l3.441,3.441-2.238,3.723a1.056,1.056,0,0,0,.019,1.118,20.2,20.2,0,0,1,2.806,6.771,1.056,1.056,0,0,0,.777.8l4.216,1.05Z"/>
    <path id="Path_275" data-name="Path 275" d="M121.839,106a15.683,15.683,0,0,0-7.015,1.635,1.056,1.056,0,1,0,.936,1.893,13.59,13.59,0,0,1,6.079-1.415,13.721,13.721,0,1,1-11.823,6.748,1.056,1.056,0,1,0-1.818-1.075A15.84,15.84,0,1,0,121.839,106Z" transform="translate(-94.807 -94.807)"/>
    <path id="Path_276" data-name="Path 276" d="M191.6,184a7.6,7.6,0,1,0,7.6,7.6A7.611,7.611,0,0,0,191.6,184Zm0,13.093a5.491,5.491,0,1,1,5.491-5.491A5.5,5.5,0,0,1,191.6,197.1Z" transform="translate(-164.571 -164.571)"/>
    <path id="Path_277" data-name="Path 277" d="M151.646,145.674a1.056,1.056,0,1,0-.747-.309A1.064,1.064,0,0,0,151.646,145.674Z" transform="translate(-134.689 -128.401)"/>
  </g>
</svg>
