<svg xmlns="http://www.w3.org/2000/svg" width="73.644" height="54.063" viewBox="0 0 73.644 54.063">
  <g id="team" transform="translate(0 -68.066)">
    <path id="Path_674" data-name="Path 674" d="M32.811,203.948c-.316-4.446-3.614-8.071-8.071-8.071s-7.755,3.625-8.071,8.071c-.188,2.651,0,6.918-1.153,9.224,0,0,1.153,2.306,5.405,3.462l7.661,0c4.229-1.153,5.382-3.459,5.382-3.459C32.811,210.866,33,206.6,32.811,203.948Z" transform="translate(-13.284 -109.427)" fill="#694b4b"/>
    <path id="Path_675" data-name="Path 675" d="M23.587,204.837c-4.443-2.222-3.529-6.575-.363-7.922a8.433,8.433,0,0,0-6.555,7.922c-.188,2.651,0,6.918-1.153,9.224,0,0,1.153,2.306,5.405,3.462h3.642Z" transform="translate(-13.284 -110.316)" fill="#5a4146"/>
    <path id="Path_676" data-name="Path 676" d="M26.342,315.49l-3.731-1.866a2.306,2.306,0,0,1-1.275-2.063V308.1H14.418v3.459a2.306,2.306,0,0,1-1.275,2.062l-3.731,1.866A3.459,3.459,0,0,0,7.5,318.583v7.967H28.254v-7.967A3.459,3.459,0,0,0,26.342,315.49Z" transform="translate(-6.421 -205.51)" fill="#e6af78"/>
    <path id="Path_677" data-name="Path 677" d="M28.255,349a3.459,3.459,0,0,0-1.912-3.094l-3.731-1.866a2.286,2.286,0,0,1-.569-.412L20.72,345.1a3.747,3.747,0,0,1-5.683,0l-1.323-1.473a2.294,2.294,0,0,1-.568.412L9.413,345.9A3.459,3.459,0,0,0,7.5,349v7.967H28.255V349Z" transform="translate(-6.422 -235.924)" fill="#f9e109"/>
    <path id="Path_678" data-name="Path 678" d="M41.091,256.624h0a6.917,6.917,0,0,1-6.1-3.659,3.373,3.373,0,0,1,1.1-4.3,8.935,8.935,0,0,0,.8-.636,6.656,6.656,0,0,0,1.579-2.08,1.135,1.135,0,0,1,1.294-.629,19.864,19.864,0,0,1,7.837,4.016,1.1,1.1,0,0,1,.391.913A6.919,6.919,0,0,1,41.091,256.624Z" transform="translate(-29.635 -151.727)" fill="#f0c087"/>
    <path id="Path_679" data-name="Path 679" d="M47.815,249.336a19.864,19.864,0,0,0-7.831-4.014,1.141,1.141,0,0,0-1.3.632,6.6,6.6,0,0,1-1.054,1.538v0a6.172,6.172,0,0,1-.523.534,8.046,8.046,0,0,1-.771.613,3.431,3.431,0,0,0-.874,4.759,6.933,6.933,0,0,0,4.8,3.131,5.017,5.017,0,0,1-2.41-4.515v-.891c.262-.193.526-.386.791-.623a9.18,9.18,0,0,0,1.649-1.945,17.412,17.412,0,0,1,6.009,3.27c.218.192.525.462,1.159,1.057a6.938,6.938,0,0,0,.748-2.637A1.1,1.1,0,0,0,47.815,249.336Z" transform="translate(-29.854 -151.731)" fill="#e6af78"/>
    <g id="Group_4559" data-name="Group 4559" transform="translate(1.079 110.995)">
      <path id="Path_680" data-name="Path 680" d="M8.2,366.522a3.451,3.451,0,0,0-.7,2.078v7.967h4.612v-5.81a2.306,2.306,0,0,0-.865-1.8Z" transform="translate(-7.5 -366.522)" fill="#fcbc04"/>
      <path id="Path_681" data-name="Path 681" d="M123.635,366.522a3.451,3.451,0,0,1,.7,2.078v7.967h-4.612v-5.81a2.306,2.306,0,0,1,.865-1.8Z" transform="translate(-103.584 -366.522)" fill="#fcbc04"/>
    </g>
    <path id="Path_682" data-name="Path 682" d="M368.226,207.353v.809a9.222,9.222,0,0,0,.473,2.917l1.833,5.5h3.459V203.894h-2.306A3.459,3.459,0,0,0,368.226,207.353Z" transform="translate(-315.262 -116.291)" fill="#5a4146"/>
    <path id="Path_683" data-name="Path 683" d="M397.828,202.575l-2.04,7.139-9.224-8.071a2.306,2.306,0,0,1-2.306-2.306h0a3.459,3.459,0,0,1,3.459-3.459h10.377v4.8A6.912,6.912,0,0,1,397.828,202.575Z" transform="translate(-328.988 -109.428)" fill="#694b4b"/>
    <rect id="Rectangle_3248" data-name="Rectangle 3248" width="6.919" height="6.919" transform="translate(57.576 103.745)" fill="#e6af78"/>
    <path id="Path_684" data-name="Path 684" d="M364.729,337.154l-5.563-1.589-3.459,4.121-3.459-4.121-5.562,1.589a3.459,3.459,0,0,0-2.509,3.326v9.583h23.06V340.48A3.459,3.459,0,0,0,364.729,337.154Z" transform="translate(-294.673 -229.023)" fill="#f9e109"/>
    <path id="Path_685" data-name="Path 685" d="M383.16,248.725h0a6.918,6.918,0,0,1-6.918-6.918h0a5.568,5.568,0,0,1,1.631-3.937l1.136-1.136a2.279,2.279,0,0,1,1.674-.678c3.686.116,6.948.906,8.732,2.648a2.276,2.276,0,0,1,.664,1.633v1.469A6.918,6.918,0,0,1,383.16,248.725Z" transform="translate(-322.125 -143.827)" fill="#f0c087"/>
    <path id="Path_686" data-name="Path 686" d="M379.7,241.807a2.3,2.3,0,0,1,2.444-2.3c2.328.148,5.782.538,7.9,1.557a6.422,6.422,0,0,0-.632-2.356c-1.783-1.742-5.046-2.531-8.732-2.648h0a2.28,2.28,0,0,0-1.674.678l-1.136,1.136a5.567,5.567,0,0,0-1.631,3.937h0a6.916,6.916,0,0,0,5,6.643,6.861,6.861,0,0,1-1.542-4.337v-2.306Z" transform="translate(-322.124 -143.827)" fill="#e6af78"/>
    <path id="Path_687" data-name="Path 687" d="M472.435,361.4a3.459,3.459,0,0,1,1.013-2.446l2.968-2.968a3.445,3.445,0,0,1,.631,1.978v9.583h-4.612Z" transform="translate(-404.482 -246.504)" fill="#fcbc04"/>
    <path id="Path_688" data-name="Path 688" d="M155.892,327.643l-9.647-3.508-6.918,2.306-6.918-2.306-9.647,3.508a4.612,4.612,0,0,0-3.036,4.334v8.3h39.2v-8.3A4.612,4.612,0,0,0,155.892,327.643Z" transform="translate(-102.505 -219.237)" fill="#64b5f6"/>
    <path id="Path_689" data-name="Path 689" d="M349.854,356.812a4.607,4.607,0,0,1,1.241,3.142v8.3h-6.918V364.4a4.612,4.612,0,0,1,1.351-3.261Z" transform="translate(-294.672 -247.214)" fill="#2196f3"/>
    <path id="Path_690" data-name="Path 690" d="M193.188,87.6V77.941a2.306,2.306,0,0,0-2.306-2.306H177.046a9.224,9.224,0,0,0-9.224,9.224V87.6a11.528,11.528,0,0,0,.592,3.646L168.8,92.4a3.461,3.461,0,0,1,.177,1.094v.592h23.06v-.592a3.46,3.46,0,0,1,.178-1.094l.384-1.151A11.527,11.527,0,0,0,193.188,87.6Z" transform="translate(-143.683 -6.48)" fill="#5a4146"/>
    <path id="Path_691" data-name="Path 691" d="M207.9,80.319A4.684,4.684,0,0,0,212.587,85h.649l.313,9.08h12.8v-.592a3.461,3.461,0,0,1,.177-1.094l.384-1.151A11.528,11.528,0,0,0,227.5,87.6V77.941a2.306,2.306,0,0,0-2.306-2.306H212.587A4.684,4.684,0,0,0,207.9,80.319Z" transform="translate(-177.999 -6.48)" fill="#694b4b"/>
    <rect id="Rectangle_3249" data-name="Rectangle 3249" width="13.836" height="10.376" transform="translate(29.904 96.826)" fill="#e6af78"/>
    <path id="Path_692" data-name="Path 692" d="M207.9,273.24a14.928,14.928,0,0,0,13.836,0v-5.218H207.9v5.218Z" transform="translate(-177.999 -171.195)" fill="#d29b6e"/>
    <g id="Group_4560" data-name="Group 4560" transform="translate(27.598 102.978)">
      <path id="Path_693" data-name="Path 693" d="M201.1,315.014l-3.677,3.677a1.153,1.153,0,0,1-1.734-.118l-3.813-5.024,1-2.1a1.153,1.153,0,0,1,1.646-.487Z" transform="translate(-191.871 -310.788)" fill="#2196f3"/>
      <path id="Path_694" data-name="Path 694" d="M256,315.014l3.677,3.677a1.153,1.153,0,0,0,1.734-.118l3.813-5.024-1-2.1a1.153,1.153,0,0,0-1.646-.487Z" transform="translate(-246.776 -310.788)" fill="#2196f3"/>
    </g>
    <path id="Path_695" data-name="Path 695" d="M187.369,162.409h0a11.53,11.53,0,0,1-11.53-11.53v-1.153l1.919-1.279a3.459,3.459,0,0,0,1.54-2.878v-3.914s9.224-3.459,16.142,2.306v1.607a3.46,3.46,0,0,0,1.54,2.879l1.919,1.279v1.153A11.53,11.53,0,0,1,187.369,162.409Z" transform="translate(-150.547 -62.123)" fill="#f0c087"/>
    <path id="Path_696" data-name="Path 696" d="M120.967,356.812a4.606,4.606,0,0,0-1.241,3.142v8.3h6.918V364.4a4.612,4.612,0,0,0-1.351-3.261Z" transform="translate(-102.505 -247.214)" fill="#2196f3"/>
    <path id="Path_697" data-name="Path 697" d="M184.785,144.426c2.507-.314,6.9-.495,10.655,1.142V143.96c-6.918-5.765-16.142-2.306-16.142-2.306v3.914a3.459,3.459,0,0,1-1.54,2.878l-1.919,1.279v1.153a11.526,11.526,0,0,0,10.137,11.438h0a11.481,11.481,0,0,1-3.219-7.979v-7.621A2.307,2.307,0,0,1,184.785,144.426Z" transform="translate(-150.547 -62.122)" fill="#e6af78"/>
    <path id="Path_698" data-name="Path 698" d="M400.268,231.646a1.079,1.079,0,0,0,.965-1.93c-2.506-1.253-7.2-1.267-7.4-1.267a1.079,1.079,0,0,0,0,2.158C395.042,230.607,398.562,230.793,400.268,231.646Z" transform="translate(-336.259 -137.314)"/>
    <path id="Path_699" data-name="Path 699" d="M70.352,107.761,65.9,106.488a.452.452,0,0,1-.327-.433v-1.487a8.108,8.108,0,0,0,1.031-.846,7.936,7.936,0,0,0,2.429-5.741V95.929l.431-.861a6.882,6.882,0,0,0,.723-3.062V86.446a1.079,1.079,0,0,0-1.079-1.079H58.724a6.854,6.854,0,0,0-6.846,6.846v.064a5.722,5.722,0,0,0,.6,2.546l.552,1.1v1.762a8.417,8.417,0,0,0,3.46,6.806v1.559c0,.24,0,.34-.891.594l-2.174.621-6.289-2.287a1.078,1.078,0,0,0-.294-.826l-2.01-2.111V98.5c.212-.175.422-.355.625-.545a12.661,12.661,0,0,0,3.989-9.2v-2.83A12.47,12.47,0,0,0,50.6,80.679V69.145a1.079,1.079,0,0,0-1.079-1.079H33.375A10.318,10.318,0,0,0,23.069,78.372v2.307a12.47,12.47,0,0,0,1.153,5.244v2.435a13.182,13.182,0,0,0,4.614,10.061v3.628l-2.01,2.111a1.078,1.078,0,0,0-.294.826L19.9,107.4a5.657,5.657,0,0,0-1.334.7l-1.042-.521a8.239,8.239,0,0,0,4.133-3.344,1.078,1.078,0,0,0,0-.965c-.778-1.555-.872-4.406-.948-6.7-.025-.763-.049-1.483-.095-2.125-.368-5.174-4.3-9.076-9.15-9.076s-8.783,3.9-9.15,9.076c-.046.642-.069,1.362-.095,2.125-.076,2.291-.17,5.141-.948,6.7a1.078,1.078,0,0,0,0,.965A8.238,8.238,0,0,0,5.4,107.572L2.509,109.02A4.515,4.515,0,0,0,0,113.08v7.97a1.079,1.079,0,1,0,2.158,0v-7.97a2.369,2.369,0,0,1,1.316-2.13l3.6-1.8,1.254,1.192a4.537,4.537,0,0,0,6.254,0l1.254-1.192,1.175.588a5.681,5.681,0,0,0-.868,3.012v8.3a1.079,1.079,0,1,0,2.158,0v-8.3a3.546,3.546,0,0,1,2.327-3.322l7-2.545,2.913,4.37a2.224,2.224,0,0,0,1.637.983q.112.011.223.011a2.223,2.223,0,0,0,1.576-.654l1.777-1.777V121.05a1.079,1.079,0,0,0,2.158,0V109.813l1.777,1.777a2.223,2.223,0,0,0,1.576.654q.111,0,.222-.011a2.224,2.224,0,0,0,1.637-.983l2.913-4.37,7,2.545a3.546,3.546,0,0,1,2.327,3.322v8.3a1.079,1.079,0,1,0,2.158,0v-8.3a5.7,5.7,0,0,0-1.6-3.947l.267-.076a5.916,5.916,0,0,0,1-.362l2.754,2.754v9.934a1.079,1.079,0,1,0,2.158,0v-9.934l2.735-2.735a2.566,2.566,0,0,0,.459.182l4.455,1.273a2.392,2.392,0,0,1,1.727,2.29v8.924a1.079,1.079,0,0,0,2.158,0v-8.924A4.559,4.559,0,0,0,70.352,107.761ZM16,105.859v-1.287a7.98,7.98,0,0,0,2.848-3.517,11.876,11.876,0,0,0,.614,2.577A7.793,7.793,0,0,1,16,105.859ZM4.462,94.6a8.009,8.009,0,0,1,2.181-5.03,6.7,6.7,0,0,1,9.634,0,8.009,8.009,0,0,1,2.181,5.03c.043.6.066,1.3.09,2.043l.006.192a9.693,9.693,0,0,0-5.328-3.894,13.539,13.539,0,0,0-4.1-.65,1.079,1.079,0,0,0-.747.33L6.43,94.637a1.079,1.079,0,1,0,1.553,1.5l1.62-1.68c1.395.068,5.882.59,7.627,4.433a5.841,5.841,0,0,1-11.612-.907,1.072,1.072,0,0,0-1.256-1.063c0-.093.006-.186.009-.278C4.4,95.9,4.419,95.2,4.462,94.6Zm-1,9.036a11.891,11.891,0,0,0,.615-2.583,8.044,8.044,0,0,0,2.847,3.513v1.293A7.755,7.755,0,0,1,3.459,103.633Zm6.361,5.142-1-.953a2.232,2.232,0,0,0,.262-1.053v-1.15a8.022,8.022,0,0,0,4.763,0v1.149a2.232,2.232,0,0,0,.262,1.054l-1,.953A2.381,2.381,0,0,1,9.819,108.775ZM26.38,88.358V85.682a1.079,1.079,0,0,0-.107-.469,10.348,10.348,0,0,1-1.046-4.533V78.372a8.158,8.158,0,0,1,8.149-8.149h15.07V80.679A10.348,10.348,0,0,1,47.4,85.213a1.079,1.079,0,0,0-.107.469v3.072a10.357,10.357,0,0,1-3.307,7.63,10.739,10.739,0,0,1-.828.7l-.019.014a10.373,10.373,0,0,1-7,2.088A10.685,10.685,0,0,1,26.38,88.358ZM36,101.339q.427.028.849.027a12.5,12.5,0,0,0,5.831-1.429v1.971L36.836,105.9l-5.842-3.993V99.895A12.146,12.146,0,0,0,36,101.339Zm-3.544,8.725a.068.068,0,0,1-.06.021.069.069,0,0,1-.055-.033l-3.355-5.033,1.08-1.134,5.09,3.479Zm8.878-.011a.069.069,0,0,1-.055.033.067.067,0,0,1-.06-.021l-2.7-2.7,5.09-3.479,1.08,1.134ZM55.189,97.691V95.674a1.078,1.078,0,0,0-.114-.482l-.666-1.333a3.554,3.554,0,0,1-.373-1.581v-.064a4.694,4.694,0,0,1,4.688-4.688h9.3v4.48a4.713,4.713,0,0,1-.495,2.1l-.545,1.089a1.078,1.078,0,0,0-.114.482v2.307a5.842,5.842,0,0,1-6.022,5.839A6.039,6.039,0,0,1,55.189,97.691Zm5.6,8.286c.083,0,.166,0,.248,0a8.013,8.013,0,0,0,2.378-.36v.434a2.579,2.579,0,0,0,.078.629l-2.46,2.459L58.583,106.7a2.96,2.96,0,0,0,.067-.641V105.6A7.564,7.564,0,0,0,60.786,105.977Z" transform="translate(0)"/>
    <path id="Path_700" data-name="Path 700" d="M466,380.814a1.079,1.079,0,0,0-1.079,1.079v6.921a1.079,1.079,0,0,0,2.158,0v-6.921A1.079,1.079,0,0,0,466,380.814Z" transform="translate(-398.05 -267.764)"/>
    <path id="Path_701" data-name="Path 701" d="M33.156,390.728a1.079,1.079,0,0,0-1.079,1.079V397.3a1.079,1.079,0,0,0,2.158,0v-5.495A1.079,1.079,0,0,0,33.156,390.728Z" transform="translate(-27.463 -276.252)"/>
    <path id="Path_702" data-name="Path 702" d="M194.618,138.837a.071.071,0,0,1,.056-.073,34.082,34.082,0,0,1,7.008-.342c3.364.224,5.8,1.068,7.242,2.51a1.079,1.079,0,1,0,1.526-1.526c-4.08-4.08-12.617-3.3-16.1-2.775a2.215,2.215,0,0,0-1.892,2.206v2.485a1.079,1.079,0,1,0,2.158,0v-2.485Z" transform="translate(-164.777 -58.336)"/>
    <path id="Path_703" data-name="Path 703" d="M161.463,396.853a1.079,1.079,0,0,0-1.079,1.079v4.614a1.079,1.079,0,0,0,2.158,0v-4.614A1.079,1.079,0,0,0,161.463,396.853Z" transform="translate(-137.315 -281.496)"/>
    <path id="Path_704" data-name="Path 704" d="M337.885,396.853a1.079,1.079,0,0,0-1.079,1.079v4.614a1.079,1.079,0,0,0,2.158,0v-4.614A1.079,1.079,0,0,0,337.885,396.853Z" transform="translate(-288.361 -281.496)"/>
  </g>
</svg>
