<svg id="Layer_1" data-name="Layer 1" xmlns="http://www.w3.org/2000/svg" xmlns:xlink="http://www.w3.org/1999/xlink" viewBox="0 0 150 150"><defs><style>.cls-1{fill:url(#linear-gradient);}.cls-2{fill:#fff;}</style><linearGradient id="linear-gradient" x1="75" y1="112.25" x2="75" y2="60.44" gradientUnits="userSpaceOnUse"><stop offset="0" stop-color="#76242b"/><stop offset="1" stop-color="#b33640"/></linearGradient></defs><rect class="cls-1" x="10" y="10" width="130" height="130" rx="27.92"/><path class="cls-2" d="M42.08,61.34a7.64,7.64,0,0,1,1.58,0,4.57,4.57,0,0,1,1.39.29,2.6,2.6,0,0,1,1.05.72,2.25,2.25,0,0,1,.51,1.26,2.37,2.37,0,0,1-.82,2.22,3.27,3.27,0,0,1-1,.6,4.81,4.81,0,0,1-1.16.29,4.34,4.34,0,0,0-1.14.27,2,2,0,0,0-.81.57,2.28,2.28,0,0,0-.44,1,5.07,5.07,0,0,0,0,1.57l1.26,10.53a6.43,6.43,0,0,1-.29,3.3,2.39,2.39,0,0,1-2.1,1.39,2.52,2.52,0,0,1-2.23-.84,5.53,5.53,0,0,1-1.19-3.15L35.41,70.87a4,4,0,0,0-.88-2.36,2.69,2.69,0,0,0-2.31-.5,5,5,0,0,1-.86,0,4.49,4.49,0,0,1-1.15-.28A3,3,0,0,1,29.13,67a2.19,2.19,0,0,1-.59-1.34,2.14,2.14,0,0,1,.23-1.35,3,3,0,0,1,.88-.95,4.28,4.28,0,0,1,1.24-.58,8.37,8.37,0,0,1,1.34-.27Z"/><path class="cls-2" d="M63.28,68.72a12.12,12.12,0,0,1,4,2.35,11.4,11.4,0,0,1,2.79,3.84,12.57,12.57,0,0,1,1,5.26A12.35,12.35,0,0,1,70,85.8a11.68,11.68,0,0,1-3,3.85,12.44,12.44,0,0,1-4.06,2.2,14.08,14.08,0,0,1-4.28.7,12.67,12.67,0,0,1-4.19-.75,11.76,11.76,0,0,1-6.8-6.14,12.54,12.54,0,0,1-1.13-5.49,12.84,12.84,0,0,1,1-5.21A11.37,11.37,0,0,1,54,68.74a12.91,12.91,0,0,1,4.59-.82A14,14,0,0,1,63.28,68.72Zm-7.37,5.34A5.44,5.44,0,0,0,54,75.54a6.2,6.2,0,0,0-1.12,2.13,8.79,8.79,0,0,0-.36,2.5A8.22,8.22,0,0,0,53,83.08a6.31,6.31,0,0,0,1.3,2.13,5.32,5.32,0,0,0,1.92,1.32,6.51,6.51,0,0,0,4.88-.07A6.41,6.41,0,0,0,63.18,85a6.54,6.54,0,0,0,1.4-2.17,7,7,0,0,0,.51-2.69,8,8,0,0,0-.39-2.48,6.53,6.53,0,0,0-1.2-2.14,5.86,5.86,0,0,0-2-1.49,6.93,6.93,0,0,0-2.87-.56A6,6,0,0,0,55.91,74.06Z"/><path class="cls-2" d="M90.32,58.5a12,12,0,0,1,2.49,1.24,6.07,6.07,0,0,1,1.64,1.52A2.13,2.13,0,0,1,94.86,63a2.66,2.66,0,0,1-.54,1.23,2.81,2.81,0,0,1-.9.76,3.13,3.13,0,0,1-1.07.35,3.32,3.32,0,0,1-1,0,3.84,3.84,0,0,1-1.17-.43L89,64.2c-.39-.22-.81-.44-1.24-.66a5.56,5.56,0,0,0-1.46-.48,5.81,5.81,0,0,0-2.16,0A6,6,0,0,0,81.9,64a6.57,6.57,0,0,0-1.85,1.8,7.93,7.93,0,0,0-1.08,6,6.59,6.59,0,0,0,1.19,2.4A6.23,6.23,0,0,0,82,75.76a6.52,6.52,0,0,0,2,.77,5.48,5.48,0,0,0,2.69,0A1.86,1.86,0,0,0,88,75a1.65,1.65,0,0,0-.11-1.15,2.64,2.64,0,0,0-.63-.78,6.34,6.34,0,0,0-.81-.58,2.17,2.17,0,0,1-.66-.56,4.78,4.78,0,0,1-.59-.92,2.16,2.16,0,0,1-.08-1.35,2.28,2.28,0,0,1,1.61-1.73,7.22,7.22,0,0,1,3.72,0,11.44,11.44,0,0,1,2,.56,3.86,3.86,0,0,1,1.42.91,2.92,2.92,0,0,1,.72,1.46A5.85,5.85,0,0,1,94.5,73l-1,5.42a4.43,4.43,0,0,1-3.19,3.51c-1.79.6-4.25.6-7.36,0a13.57,13.57,0,0,1-4.61-1.77A11.61,11.61,0,0,1,74.87,77,11.36,11.36,0,0,1,73,72.66,13.92,13.92,0,0,1,75.1,62.38a11.61,11.61,0,0,1,3.51-3.25A11.74,11.74,0,0,1,82.9,57.6a13,13,0,0,1,4.45.08A19.11,19.11,0,0,1,90.32,58.5Z"/><path class="cls-2" d="M113.63,68a12.12,12.12,0,0,1,4,2.35,11.4,11.4,0,0,1,2.79,3.84,12.57,12.57,0,0,1,1,5.26,12.35,12.35,0,0,1-1.18,5.63,11.68,11.68,0,0,1-3,3.85,12.44,12.44,0,0,1-4.06,2.2,14.08,14.08,0,0,1-4.28.7,12.67,12.67,0,0,1-4.19-.75,12.08,12.08,0,0,1-3.91-2.29A11.89,11.89,0,0,1,98,84.9a12.47,12.47,0,0,1-1.13-5.48,12.81,12.81,0,0,1,1-5.21A11.35,11.35,0,0,1,104.36,68a12.81,12.81,0,0,1,4.58-.82A13.8,13.8,0,0,1,113.63,68Zm-7.37,5.34a5.54,5.54,0,0,0-1.89,1.48,6,6,0,0,0-1.11,2.13,8.41,8.41,0,0,0-.37,2.5,8.22,8.22,0,0,0,.48,2.91,6.31,6.31,0,0,0,1.3,2.13,5.18,5.18,0,0,0,1.92,1.31,6.11,6.11,0,0,0,2.35.45,6.28,6.28,0,0,0,4.59-1.94,6.64,6.64,0,0,0,1.4-2.17,7,7,0,0,0,.51-2.69,7.94,7.94,0,0,0-.39-2.48,6.53,6.53,0,0,0-1.2-2.14,5.86,5.86,0,0,0-2-1.49,6.93,6.93,0,0,0-2.87-.56A6,6,0,0,0,106.26,73.31Z"/></svg>