<svg id="Layer_1" data-name="Layer 1" xmlns="http://www.w3.org/2000/svg" viewBox="0 0 841.89 595.28"><defs><style>.cls-1{fill:#b33640;}.cls-2{fill:#fff;}</style></defs><rect class="cls-1" width="841.89" height="595.28"/><path class="cls-2" d="M224.33,215.72a50.06,50.06,0,0,1,9.44-.24,29.28,29.28,0,0,1,8.31,1.77,15.8,15.8,0,0,1,6.24,4.29,13.57,13.57,0,0,1,3.07,7.53,14,14,0,0,1-4.93,13.23,20.45,20.45,0,0,1-6.09,3.59,29.16,29.16,0,0,1-6.9,1.71,27.89,27.89,0,0,0-6.82,1.61,11.48,11.48,0,0,0-4.82,3.44,13.32,13.32,0,0,0-2.63,6,30.8,30.8,0,0,0-.06,9.38L226.65,331q1.5,12.45-1.69,19.65t-12.53,8.31a14.94,14.94,0,0,1-13.34-5q-5.55-6-7.08-18.8l-7.48-62.48q-1.18-9.93-5.24-14.09t-13.78-3a27.3,27.3,0,0,1-5.14-.07,25.12,25.12,0,0,1-6.91-1.64,18.5,18.5,0,0,1-6.43-4.27,13,13,0,0,1-3.52-8,12.66,12.66,0,0,1,1.4-8.07,17.51,17.51,0,0,1,5.25-5.66,25.27,25.27,0,0,1,7.38-3.45,52.73,52.73,0,0,1,8-1.65Z"/><path class="cls-2" d="M350.9,259.79a72,72,0,0,1,23.92,14,67.86,67.86,0,0,1,16.66,22.93q6.27,13.72,6.28,31.37,0,19.61-7.06,33.62a69.08,69.08,0,0,1-18,22.94,73.22,73.22,0,0,1-24.21,13.13A84.14,84.14,0,0,1,322.87,402a75.37,75.37,0,0,1-25-4.51,70.27,70.27,0,0,1-40.58-36.66q-6.77-13.92-6.76-32.74,0-17.44,6-31.07a68.4,68.4,0,0,1,16-22.94,69.24,69.24,0,0,1,23-14.21,77,77,0,0,1,27.35-4.9A83.21,83.21,0,0,1,350.9,259.79Zm-44,31.86a33.44,33.44,0,0,0-11.27,8.82A36,36,0,0,0,289,313.21a51.93,51.93,0,0,0-2.15,14.9,48.9,48.9,0,0,0,2.84,17.35,37.47,37.47,0,0,0,7.74,12.74,32.1,32.1,0,0,0,11.47,7.85,37.23,37.23,0,0,0,14,2.64,37.78,37.78,0,0,0,27.44-11.56,40.45,40.45,0,0,0,8.34-12.94,42.3,42.3,0,0,0,3-16.08,47,47,0,0,0-2.36-14.8,37.12,37.12,0,0,0-7.15-12.74A34.59,34.59,0,0,0,340,291.65a41.22,41.22,0,0,0-17.15-3.34A35.79,35.79,0,0,0,306.89,291.65Z"/><path class="cls-2" d="M512.29,198.81a71.89,71.89,0,0,1,14.85,7.37,37,37,0,0,1,9.82,9.09,12.72,12.72,0,0,1,2.44,10.06,16.44,16.44,0,0,1-3.23,7.36,17.31,17.31,0,0,1-5.37,4.55,18.57,18.57,0,0,1-6.39,2.06,19.78,19.78,0,0,1-6.27-.12,23.53,23.53,0,0,1-7-2.55q-3.34-1.84-6.85-3.83c-2.34-1.31-4.81-2.63-7.42-3.93a33.55,33.55,0,0,0-8.73-2.89,35,35,0,0,0-12.9.09,36.49,36.49,0,0,0-13.19,5.24A39.75,39.75,0,0,0,451,242a42,42,0,0,0-6.7,16.57q-2.13,11,.23,19.42a39.49,39.49,0,0,0,7.1,14.35,37.74,37.74,0,0,0,10.95,9.42,40.33,40.33,0,0,0,12,4.62q9.81,1.89,16.09-.08t7.69-9.29a10.1,10.1,0,0,0-.66-6.92,16.19,16.19,0,0,0-3.79-4.63,36.36,36.36,0,0,0-4.83-3.43,13.66,13.66,0,0,1-3.94-3.36,30.94,30.94,0,0,1-3.53-5.48c-1-1.91-1.1-4.61-.43-8.07q1.41-7.31,9.59-10.32t22.22-.29a71.44,71.44,0,0,1,11.94,3.31,22.67,22.67,0,0,1,8.43,5.43,17.45,17.45,0,0,1,4.3,8.72,34.23,34.23,0,0,1-.42,13L531,317.35q-3,15.58-19,21t-43.93,0a81.45,81.45,0,0,1-27.51-10.53,70.07,70.07,0,0,1-20.42-18.83,67.85,67.85,0,0,1-11.2-25.63,75.94,75.94,0,0,1,.07-30.74q3.54-18.28,12.52-30.62A69.15,69.15,0,0,1,468,193.42a78,78,0,0,1,26.57.46A111.46,111.46,0,0,1,512.29,198.81Z"/><path class="cls-2" d="M651.45,255.31a72,72,0,0,1,23.92,14A67.9,67.9,0,0,1,692,292.26q6.29,13.73,6.28,31.37,0,19.61-7.06,33.62a69.18,69.18,0,0,1-18,22.94A73.59,73.59,0,0,1,649,393.32a84.14,84.14,0,0,1-25.58,4.22,75.37,75.37,0,0,1-25-4.51,70.35,70.35,0,0,1-40.58-36.66q-6.76-13.92-6.76-32.74,0-17.44,6-31.07a68.3,68.3,0,0,1,16-22.94,69.11,69.11,0,0,1,23-14.22,77.24,77.24,0,0,1,27.35-4.9A83.17,83.17,0,0,1,651.45,255.31Zm-44,31.85A33.69,33.69,0,0,0,596.17,296a35.92,35.92,0,0,0-6.67,12.74,51.88,51.88,0,0,0-2.15,14.9A48.94,48.94,0,0,0,590.19,341a37.63,37.63,0,0,0,7.74,12.74,32.08,32.08,0,0,0,11.47,7.84,37,37,0,0,0,14,2.65,37.78,37.78,0,0,0,27.45-11.57,40.6,40.6,0,0,0,8.33-12.94,42.21,42.21,0,0,0,3-16.07,47,47,0,0,0-2.36-14.8,37.09,37.09,0,0,0-7.15-12.75,34.84,34.84,0,0,0-12.16-8.92,41.22,41.22,0,0,0-17.15-3.33A35.82,35.82,0,0,0,607.44,287.16Z"/><path class="cls-2" d="M439,390.34v0l.23.52a5.92,5.92,0,0,0,.26.59l.86,2c.32.72.62,1.43.89,2.13s.49,1.35.67,2a5.64,5.64,0,0,1,.26,1.44v0a3,3,0,0,1-.07.59,1.93,1.93,0,0,1-.31.71,2.1,2.1,0,0,1-.67.61,2.2,2.2,0,0,1-1.17.27,3.14,3.14,0,0,1-1.32-.25,3.18,3.18,0,0,1-1-.69,5,5,0,0,1-.75-1c-.22-.38-.43-.75-.63-1.13L435.7,397a4.34,4.34,0,0,0-.69-.92,3.55,3.55,0,0,0-1.89-1,7.38,7.38,0,0,0-1.25-.15c-.46,0-1,0-1.6,0h-2.61c-.69,0-1.28,0-1.78,0a8.56,8.56,0,0,0-1.34.15,3.35,3.35,0,0,0-1.05.38,4.52,4.52,0,0,0-.92.73,7.06,7.06,0,0,0-1,1.57c-.2.41-.43.81-.67,1.21a10.11,10.11,0,0,1-.76,1.07,3.81,3.81,0,0,1-.89.78,1.85,1.85,0,0,1-1.05.31,2.89,2.89,0,0,1-1.86-.5,2.33,2.33,0,0,1-.59-1.84,6,6,0,0,1,.31-1.68c.2-.69.46-1.42.76-2.18s.64-1.53,1-2.28.64-1.4.9-1.94l.21-.42c.06-.12.12-.25.17-.38v0l4.64-10.61a7.35,7.35,0,0,0,.32-.77c.09-.25.19-.49.29-.72q.47-1.11.9-2.07a8.54,8.54,0,0,1,1-1.65,4,4,0,0,1,1.16-1.07,3.06,3.06,0,0,1,1.54-.38,3.51,3.51,0,0,1,1.66.38,4,4,0,0,1,1.25,1.11,9.58,9.58,0,0,1,1,1.72c.3.67.61,1.41.94,2.23.13.28.25.57.37.88s.23.61.36.92Zm-12.6-.44a4.36,4.36,0,0,0,2.41.55,3.55,3.55,0,0,0,2.49-.68,2.5,2.5,0,0,0,.69-1.84,8.74,8.74,0,0,0-.23-1.4,15.83,15.83,0,0,0-.67-2.18,10,10,0,0,0-1-2,1.63,1.63,0,0,0-1.32-.89,1.21,1.21,0,0,0-.86.43,4.83,4.83,0,0,0-.76,1.09,10.77,10.77,0,0,0-.66,1.45A15.48,15.48,0,0,0,426,386c-.13.5-.23.95-.31,1.35a4.9,4.9,0,0,0-.12.82A2,2,0,0,0,426.44,389.9Z"/><path class="cls-2" d="M458.6,381.68a1.85,1.85,0,0,1,.65,1.42,2.56,2.56,0,0,1-.25,1.21,1.93,1.93,0,0,1-.67.69,4.18,4.18,0,0,1-1,.4q-.56.15-1.17.27a7.15,7.15,0,0,0-1.74.55,5.6,5.6,0,0,0-1.32,1,4.65,4.65,0,0,0-.54.65,4.29,4.29,0,0,0-.47,1,7,7,0,0,0-.35,1.39,12.25,12.25,0,0,0-.13,1.94v4.71a7.21,7.21,0,0,1-.16,1.55,4.56,4.56,0,0,1-.46,1.32,2.61,2.61,0,0,1-.78.92,1.89,1.89,0,0,1-1.13.34,2,2,0,0,1-1.17-.34,2.79,2.79,0,0,1-.8-.9,4.14,4.14,0,0,1-.48-1.21,5.71,5.71,0,0,1-.16-1.3V385.82c0-.41,0-.86.08-1.36a3.94,3.94,0,0,1,.4-1.38,2.83,2.83,0,0,1,1-1.05,3.11,3.11,0,0,1,1.74-.42,4,4,0,0,1,.9.09c.27.07.55.13.83.18l.57.13a3.27,3.27,0,0,0,.69.06,3.33,3.33,0,0,0,1-.14,5.94,5.94,0,0,0,.79-.32,8.85,8.85,0,0,1,.92-.35,4.28,4.28,0,0,1,1.22-.15A2.92,2.92,0,0,1,458.6,381.68Z"/><path class="cls-2" d="M479.48,397.12a4.18,4.18,0,0,1-.69,2.35,2.57,2.57,0,0,1-2.34,1.06h0a11.36,11.36,0,0,1-1.73-.23,6.91,6.91,0,0,1-2.41-1,12.85,12.85,0,0,1-2.72,1.46,6.4,6.4,0,0,1-1.95.46,9.36,9.36,0,0,1-1.48-.21,6.82,6.82,0,0,1-2.05-.85,5.86,5.86,0,0,1-1.8-1.78,5.34,5.34,0,0,1-.76-3,5.19,5.19,0,0,1,.82-3.05,5.84,5.84,0,0,1,2.13-1.84,9.79,9.79,0,0,1,2.83-.92,19.31,19.31,0,0,1,3-.24,5.22,5.22,0,0,0,1.2-.16,4.14,4.14,0,0,0,1.17-.46,2.83,2.83,0,0,0,.88-.76,1.77,1.77,0,0,0,.35-1.08,1.8,1.8,0,0,0-.4-1.14,3.41,3.41,0,0,0-1-.83,5.82,5.82,0,0,0-1.21-.5,4.41,4.41,0,0,0-1.09-.17,11.48,11.48,0,0,0-2,.17c-.61.12-1.15.24-1.61.37l-.71.15a3.35,3.35,0,0,1-.82.08,1.69,1.69,0,0,1-.82-.29.9.9,0,0,1-.48-.82c0-.13.19-.35.57-.67a8.85,8.85,0,0,1,1.63-1,13.87,13.87,0,0,1,2.55-.9,13.61,13.61,0,0,1,3.33-.38,7.36,7.36,0,0,1,5.67,2.14c1.32,1.43,2,3.55,2,6.36Zm-8,.9.82-.14a11.78,11.78,0,0,0,1.17-1.62,3.86,3.86,0,0,0,.59-2,1.89,1.89,0,0,0-.32-1.06,2.79,2.79,0,0,0-.79-.78,3.72,3.72,0,0,0-1-.48,2.71,2.71,0,0,0-.9-.17,3.86,3.86,0,0,0-1,.19,5.16,5.16,0,0,0-1.34.61,4.5,4.5,0,0,0-1.17,1.05,2.46,2.46,0,0,0-.5,1.55,2.17,2.17,0,0,0,.38,1.27,3.26,3.26,0,0,0,1,.9,4.42,4.42,0,0,0,1.34.53,6.17,6.17,0,0,0,1.44.18Z"/><path class="cls-2" d="M492.81,382.18q.36-.1.78-.27c.44-.15.94-.3,1.5-.44a8.09,8.09,0,0,1,2-.21,9.26,9.26,0,0,1,3.58.71,8.56,8.56,0,0,1,3,2.07,10,10,0,0,1,2,3.35,12.9,12.9,0,0,1,.75,4.56,9.89,9.89,0,0,1-1,4.55,10.57,10.57,0,0,1-2.36,3.15,9.67,9.67,0,0,1-2.87,1.8,7.33,7.33,0,0,1-2.53.57,10.46,10.46,0,0,1-2.87-.29,13.5,13.5,0,0,1-1.57-.59c-.28-.13-.57-.24-.88-.35a4,4,0,0,0-1.22-.15,6.11,6.11,0,0,0-.92,0,.85.85,0,0,0-.35.11c-.2.08-.41.15-.63.22a5.36,5.36,0,0,1-1.21.09,2.6,2.6,0,0,1-1.55-.4,2.88,2.88,0,0,1-.86-1,3.43,3.43,0,0,1-.38-1.2,9.66,9.66,0,0,1-.08-1.06V374.6a4.81,4.81,0,0,1,.69-2.74,2,2,0,0,1,1.69-1,2.13,2.13,0,0,1,.88.21,2.44,2.44,0,0,1,.82.63,3.42,3.42,0,0,1,.61,1.11,4.65,4.65,0,0,1,.25,1.61v3.75a8.87,8.87,0,0,0,.42,3,1.62,1.62,0,0,0,1.65,1.15A2.16,2.16,0,0,0,492.81,382.18Zm4.88,14.75a5.46,5.46,0,0,0,1.84-1.27,5.7,5.7,0,0,0,1.19-1.85,6,6,0,0,0,.42-2.21v-.07a5.65,5.65,0,0,0-.46-2.32,5.55,5.55,0,0,0-3.08-3,6,6,0,0,0-2.21-.42,4.41,4.41,0,0,0-1.91.44,5.46,5.46,0,0,0-1.65,1.25,6.18,6.18,0,0,0-1.16,1.91,6.37,6.37,0,0,0-.44,2.41,5.49,5.49,0,0,0,.38,2,5.85,5.85,0,0,0,1.07,1.8,5.23,5.23,0,0,0,1.63,1.29,4.42,4.42,0,0,0,2.05.48A5.94,5.94,0,0,0,497.69,396.93Z"/><path class="cls-2" d="M516.69,397.16a7.51,7.51,0,0,1-.11,1.18,4.83,4.83,0,0,1-.41,1.27,2.8,2.8,0,0,1-.78,1,1.93,1.93,0,0,1-1.27.4,1.88,1.88,0,0,1-1.28-.42,2.82,2.82,0,0,1-.73-1,5.28,5.28,0,0,1-.34-1.27,8.94,8.94,0,0,1-.1-1.16v-11.8a11.46,11.46,0,0,1,.1-1.32,6.55,6.55,0,0,1,.34-1.42,3.11,3.11,0,0,1,.73-1.13,1.81,1.81,0,0,1,1.28-.46,1.9,1.9,0,0,1,1.31.46,3.36,3.36,0,0,1,.78,1.13,5.23,5.23,0,0,1,.38,1.42,9.58,9.58,0,0,1,.1,1.32Zm-4.35-20.65a2.46,2.46,0,0,1,0-3.15,2.13,2.13,0,0,1,1.74-.71,2.2,2.2,0,0,1,1.77.72,2.45,2.45,0,0,1,.61,1.57,2.14,2.14,0,0,1-.69,1.57,2.29,2.29,0,0,1-1.69.69A2.16,2.16,0,0,1,512.34,376.51Z"/><path class="cls-2" d="M539.58,397.12a4.18,4.18,0,0,1-.69,2.35,2.54,2.54,0,0,1-2.33,1.06h0a11.28,11.28,0,0,1-1.72-.23,7,7,0,0,1-2.42-1,12.62,12.62,0,0,1-2.72,1.46,6.4,6.4,0,0,1-1.95.46,9.28,9.28,0,0,1-1.47-.21,6.72,6.72,0,0,1-2-.85,5.75,5.75,0,0,1-1.8-1.78,5.34,5.34,0,0,1-.77-3,5.19,5.19,0,0,1,.83-3.05,5.81,5.81,0,0,1,2.12-1.84,9.76,9.76,0,0,1,2.84-.92,19.19,19.19,0,0,1,3-.24,5.23,5.23,0,0,0,1.21-.16,4.26,4.26,0,0,0,1.17-.46,3,3,0,0,0,.88-.76,1.85,1.85,0,0,0-.06-2.22,3.28,3.28,0,0,0-1-.83,5.74,5.74,0,0,0-1.2-.5,4.48,4.48,0,0,0-1.09-.17,11.48,11.48,0,0,0-2,.17c-.62.12-1.15.24-1.61.37l-.71.15a3.41,3.41,0,0,1-.82.08,1.72,1.72,0,0,1-.83-.29.9.9,0,0,1-.48-.82c0-.13.2-.35.58-.67a8.21,8.21,0,0,1,1.63-1,14,14,0,0,1,2.54-.9,13.73,13.73,0,0,1,3.33-.38,7.33,7.33,0,0,1,5.67,2.14q2,2.15,2,6.36Zm-8,.9c.12,0,.39-.06.82-.14a10.31,10.31,0,0,0,1.17-1.62,3.79,3.79,0,0,0,.6-2,1.82,1.82,0,0,0-.33-1.06,2.89,2.89,0,0,0-.78-.78,3.87,3.87,0,0,0-1-.48,2.81,2.81,0,0,0-.9-.17,3.92,3.92,0,0,0-1,.19,5.48,5.48,0,0,0-1.34.61,4.67,4.67,0,0,0-1.17,1.05,2.45,2.45,0,0,0-.49,1.55,2.1,2.1,0,0,0,.38,1.27,3.14,3.14,0,0,0,1,.9,4.32,4.32,0,0,0,1.34.53,6,6,0,0,0,1.43.18Z"/></svg>